<svg width="140" height="156" viewBox="0 0 140 156" fill="none" xmlns="http://www.w3.org/2000/svg">
<path fill-rule="evenodd" clip-rule="evenodd" d="M54.6372 50.7087C46.8982 42.8418 38.5537 35.2018 35.7809 35.71C32.4329 36.3235 28.7787 52.0961 26.3728 64.7386C17.837 72.5134 12.6842 82.598 12.6842 93.6175C12.6842 118.209 38.3454 138.144 70 138.144C101.655 138.144 127.316 118.209 127.316 93.6175C127.316 82.4688 122.042 72.277 113.326 64.466C110.919 51.8706 107.293 36.3191 103.969 35.71C101.202 35.2028 92.8834 42.8133 85.1565 50.6646C80.3287 49.6388 75.2467 49.0911 70 49.0911C64.6786 49.0911 59.5265 49.6545 54.6372 50.7087Z" fill="#FFEBA8"/>
<g style="mix-blend-mode:multiply">
<path fill-rule="evenodd" clip-rule="evenodd" d="M55 50.6315V62.68C55 65.4414 57.2386 67.68 60 67.68C62.7614 67.68 65 65.4414 65 62.68V67C65 69.7614 67.2386 72 70 72C72.7614 72 75 69.7614 75 67V62.68C75 65.4414 77.2386 67.68 80 67.68C82.7614 67.68 85 65.4414 85 62.68V50.6315C80.2189 49.627 75.19 49.0911 70 49.0911C64.81 49.0911 59.7811 49.627 55 50.6315Z" fill="#FFEBA8"/>
</g>
<path d="M117.018 91.2501C123.824 88.816 125.004 88.4088 132.291 87.1098" stroke="#323232" stroke-width="1.89474" stroke-linecap="round" stroke-linejoin="round"/>
<path d="M115.474 104.38C122.543 106.296 125.723 106.687 132.465 109.786" stroke="#323232" stroke-width="1.89474" stroke-linecap="round" stroke-linejoin="round"/>
<path d="M117.791 98.2012C124.3 97.8182 126.462 98.5855 132.962 99.4" stroke="#323232" stroke-width="1.89474" stroke-linecap="round" stroke-linejoin="round"/>
<path d="M22.9816 91.2501C16.1759 88.816 14.9964 88.4088 7.70881 87.1098" stroke="#323232" stroke-width="1.89474" stroke-linecap="round" stroke-linejoin="round"/>
<path d="M24.5263 104.38C17.4572 106.296 14.2768 106.687 7.53461 109.786" stroke="#323232" stroke-width="1.89474" stroke-linecap="round" stroke-linejoin="round"/>
<path d="M22.2093 98.2012C15.7002 97.8182 13.5383 98.5855 7.03834 99.4" stroke="#323232" stroke-width="1.89474" stroke-linecap="round" stroke-linejoin="round"/>
<circle cx="43.5921" cy="86.5122" r="9.59211" fill="#323232"/>
<circle cx="47.9737" cy="85.328" r="2.13158" fill="white"/>
<path d="M88 91C88 89.6868 88.2328 88.3864 88.6851 87.1732C89.1374 85.9599 89.8003 84.8575 90.636 83.9289C91.4718 83.0004 92.4639 82.2638 93.5558 81.7612C94.6478 81.2587 95.8181 81 97 81C98.1819 81 99.3522 81.2587 100.444 81.7612C101.536 82.2638 102.528 83.0004 103.364 83.9289C104.2 84.8575 104.863 85.9599 105.315 87.1732C105.767 88.3864 106 89.6868 106 91" stroke="#323232" stroke-width="2.5" stroke-linecap="round" stroke-linejoin="round"/>
<path d="M76.158 95.5122C76.158 97.3435 74.0372 98.828 71.4211 98.828C68.805 98.828 66.6843 97.3435 66.6843 95.5122C66.6843 93.681 68.805 91.7227 71.4211 91.7227C74.0372 91.7227 76.158 93.681 76.158 95.5122Z" fill="#323232"/>
<path d="M71.4211 94.0912V100.723C71.4211 102.816 69.7245 104.512 67.6316 104.512H66.4474C65.0086 104.512 63.8422 103.346 63.8422 101.907V101.907" stroke="#323232" stroke-width="2" stroke-linecap="round" stroke-linejoin="round"/>
<path d="M71.4211 94.0912V100.723C71.4211 102.816 73.1177 104.512 75.2106 104.512H76.3948C77.8336 104.512 79.0001 103.346 79.0001 101.907V101.907" stroke="#323232" stroke-width="2" stroke-linecap="round" stroke-linejoin="round"/>
<circle cx="73.3158" cy="94.0912" r="0.947369" fill="white"/>
<g style="mix-blend-mode:multiply">
<path d="M31.0309 60.9675C32.4296 54.0458 33.7836 49.3907 36.5874 42.2314C36.8013 41.6853 37.4593 41.4648 37.9572 41.7747C43.3891 45.1559 46.377 47.7463 50.4967 52.1815C50.9739 52.6951 50.7381 53.5301 50.0648 53.7256C42.9379 55.7944 38.5094 57.1709 32.6157 61.8996C31.9116 62.4645 30.8521 61.8523 31.0309 60.9675Z" fill="#FFEBA8"/>
<path d="M107.766 60.2938C107.052 53.1983 106.373 48.9797 103.426 41.7183C103.206 41.1773 102.549 40.9669 102.056 41.2802C97.1314 44.4127 94.3205 46.7381 89.7085 51.0501C89.1733 51.5505 89.3871 52.4436 90.0891 52.6531C97.0859 54.741 100.397 56.2267 106.18 61.111C106.837 61.6658 107.852 61.1493 107.766 60.2938Z" fill="#FFEBA8"/>
</g>
<circle cx="34.9474" cy="106.407" r="8.05264" fill="#FFAC99"/>
<circle cx="105.053" cy="106.407" r="8.05264" fill="#FFAC99"/>
<path d="M70.6326 34.2737C73.722 31.126 76.2292 35.6041 76.2292 35.6041C76.2292 35.6041 81.2342 32.9117 82.3466 37.0583C83.4589 41.2048 73.9924 45.0138 73.9924 45.0138C73.9924 45.0138 67.5431 37.4214 70.6326 34.2737Z" fill="#FFE312"/>
<path d="M83.1151 25.1583C85.3047 23.164 86.8174 26.2606 86.8174 26.2606C86.8174 26.2606 90.2742 24.6436 90.8641 27.4654C91.4541 30.2873 84.9641 32.4852 84.9641 32.4852C84.9641 32.4852 80.9254 27.1526 83.1151 25.1583Z" fill="#FFE312"/>
</svg>
