<svg width="140" height="156" viewBox="0 0 140 156" fill="none" xmlns="http://www.w3.org/2000/svg">
<path d="M124 92C124 119.614 99.8234 142 70 142C40.1766 142 16 119.614 16 92C16 64.3858 43.7431 42 70 42C96.2569 42 124 64.3858 124 92Z" fill="#F0F0F0"/>
<path d="M70 30C39.6243 30 15 54.0665 15 83.7541V106.04C15 112.093 20.0205 117 26.2136 117C32.4067 117 37.4272 112.093 37.4272 106.04V96.9822L37.4272 106.562C37.4272 112.327 42.2086 117 48.1068 117C54.005 117 58.7864 112.327 58.7864 106.562L58.7864 96.9822V106.04C58.7864 112.093 63.8069 117 70 117C76.1832 117 81.1976 112.109 81.2136 106.069V106.562C81.2136 112.327 85.995 117 91.8932 117C97.7914 117 102.573 112.327 102.573 106.562L102.573 106.04C102.573 112.093 107.593 117 113.786 117C119.98 117 125 112.093 125 106.04V88.143C125 88.1386 125 88.1343 125 88.13V83.7541C125 54.0665 100.376 30 70 30Z" fill="#FCFCFC"/>
<circle cx="36" cy="77.8862" r="8" fill="#FFCEB9"/>
<circle cx="104" cy="77.8862" r="8" fill="#FFCEB9"/>
<circle cx="45.5" cy="68.5" r="7.5" fill="#525151"/>
<circle cx="2.34375" cy="2.34375" r="2.34375" transform="matrix(-1 0 0 1 51.125 62.7708)" fill="white"/>
<circle cx="1.40625" cy="1.40625" r="1.40625" transform="matrix(-1 0 0 1 46.4375 67.4583)" fill="white"/>
<circle cx="95.5" cy="68.5" r="7.5" fill="#525151"/>
<circle cx="2.34375" cy="2.34375" r="2.34375" transform="matrix(-1 0 0 1 101.125 62.7708)" fill="white"/>
<circle cx="1.40625" cy="1.40625" r="1.40625" transform="matrix(-1 0 0 1 96.4375 67.4583)" fill="white"/>
<path fill-rule="evenodd" clip-rule="evenodd" d="M70.746 90.5494C69.0991 94.0354 66.1096 96.3016 63.3138 95.8878C59.874 95.3788 58.03 91.0062 59.195 86.1213C60.36 81.2363 64.0929 77.6889 67.5327 78.1979C68.8954 78.3995 70.0076 79.2076 70.7816 80.4136C71.5536 79.2428 72.6506 78.4596 73.9892 78.2615C77.4289 77.7525 81.1618 81.2999 82.3269 86.1848C83.4919 91.0698 81.6478 95.4424 78.208 95.9514C75.3952 96.3676 72.3864 94.0714 70.746 90.5494Z" fill="#ED653B"/>
<path d="M59.7559 78.4498C57.8082 76.8604 57.7922 73.8896 59.7225 72.2793L68.2965 65.1266C69.7746 63.8935 71.9213 63.8881 73.4056 65.1136L82.0685 72.2662C84.0198 73.8772 84.0037 76.8725 82.0352 78.4625L73.372 85.4595C71.8999 86.6486 69.7958 86.6432 68.3297 85.4467L59.7559 78.4498Z" fill="#FFD500"/>
<g style="mix-blend-mode:multiply">
<path fill-rule="evenodd" clip-rule="evenodd" d="M83.4553 76.0802C80.3116 77.8887 76.0449 79 71.3457 79C66.155 79 61.4921 77.6441 58.2873 75.4904C58.3255 76.5932 58.8156 77.6825 59.7559 78.4499L68.3297 85.4468C69.7958 86.6433 71.8998 86.6486 73.372 85.4595L82.0352 78.4625C82.8163 77.8316 83.29 76.9794 83.4553 76.0802Z" fill="#FFD500" fill-opacity="0.5"/>
</g>
<path d="M73.0823 132.075C72.5369 132.307 71.9182 132.429 71.2884 132.429H69.6532C69.0234 132.429 68.4047 132.307 67.8593 132.075L54.4542 126.381C51.9422 125.314 48.8326 126.77 49.016 128.899C49.5164 134.709 49.5064 139.29 49.0077 145.1C48.8251 147.227 51.9313 148.679 54.4406 147.613L68.3831 141.691C68.9285 141.459 69.5472 141.337 70.177 141.337H70.7646C71.3944 141.337 72.0131 141.459 72.5585 141.691L86.5691 147.642C89.065 148.702 92.1576 147.271 91.9938 145.154C91.5409 139.303 91.5199 134.705 91.9765 128.857C92.1422 126.735 89.0425 125.296 86.5411 126.358L73.0823 132.075Z" fill="#ED653B"/>
<g style="mix-blend-mode:multiply">
<path fill-rule="evenodd" clip-rule="evenodd" d="M49.3865 137C49.3842 139.597 49.257 142.195 49.0077 145.1C48.8251 147.227 51.9313 148.679 54.4406 147.613L68.3831 141.691C68.9285 141.459 69.5472 141.337 70.177 141.337H70.7646C71.3944 141.337 72.0131 141.459 72.5585 141.691L86.5691 147.642C89.065 148.702 92.1576 147.271 91.9938 145.154C91.7672 142.227 91.6487 139.614 91.644 137H49.3865Z" fill="#ED653B" fill-opacity="0.45"/>
</g>
<path fill-rule="evenodd" clip-rule="evenodd" d="M70.3033 45.4854C66.5776 47.8728 61.5666 47.4379 58.3093 44.1805L49.4307 35.3019C45.6714 31.5426 45.6714 25.4475 49.4307 21.6881C52.6227 18.4962 57.4986 18.0144 61.1989 20.2429C62.0232 15.7637 65.9483 12.37 70.666 12.37C75.2568 12.37 79.097 15.5836 80.0599 19.884C83.6654 18.0791 88.1682 18.6805 91.1759 21.6881C94.9352 25.4475 94.9352 31.5426 91.1759 35.3019L82.2973 44.1805C79.04 47.4379 74.029 47.8728 70.3033 45.4854Z" fill="#ED653B"/>
<g style="mix-blend-mode:multiply">
<path fill-rule="evenodd" clip-rule="evenodd" d="M93.5408 31.4248C93.0891 30.0068 92.3008 28.6727 91.1759 27.5477C88.1682 24.54 83.6654 23.9387 80.0599 25.7436C79.097 21.4432 75.2568 18.2296 70.666 18.2296C65.9483 18.2296 62.0232 21.6233 61.1989 26.1025C57.4986 23.874 52.6227 24.3557 49.4307 27.5477C48.3058 28.6727 47.5175 30.0068 47.0658 31.4248C46.008 28.104 46.7963 24.3225 49.4307 21.6881C52.6227 18.4962 57.4986 18.0144 61.1989 20.2429C62.0232 15.7637 65.9483 12.37 70.666 12.37C75.2568 12.37 79.097 15.5836 80.0599 19.884C83.6654 18.0791 88.1682 18.6805 91.1759 21.6881C93.8103 24.3225 94.5986 28.104 93.5408 31.4248Z" fill="#ED653B" fill-opacity="0.5"/>
</g>
</svg>
