<svg width="140" height="156" viewBox="0 0 140 156" fill="none" xmlns="http://www.w3.org/2000/svg">
<path d="M97.943 24.3264C97.1001 22.8858 95.0134 23.1474 94.5563 24.7527C91.7821 34.495 91.726 39.7607 74.6776 43.4724L101.103 58.8599C106.173 44.8626 104.672 35.8261 97.943 24.3264Z" fill="#56392B"/>
<path d="M41.5933 24.3264C42.4363 22.8858 44.5229 23.1474 44.9801 24.7527C47.7543 34.495 47.8104 39.7607 64.8588 43.4724L38.4335 58.8599C33.363 44.8626 34.8642 35.8261 41.5933 24.3264Z" fill="#56392B"/>
<ellipse cx="17.4787" cy="10.329" rx="17.4787" ry="10.329" transform="matrix(0.96549 -0.260439 0.269145 0.9631 11 54.1043)" fill="#525151"/>
<ellipse cx="17.4787" cy="10.329" rx="17.4787" ry="10.329" transform="matrix(-0.96549 -0.260439 -0.269145 0.9631 128.311 54.1043)" fill="#525151"/>
<rect x="28" y="32" width="85" height="105" rx="42.5" fill="white"/>
<path fill-rule="evenodd" clip-rule="evenodd" d="M49.7283 37.4132C46.4666 44.2289 43.8701 52.4987 49.5 54C54.4668 55.3245 58.5564 50.9477 60.7525 47.84C61.3253 47.0294 62.8668 47.3141 63.0759 48.2843C64.0919 52.9994 66.6251 61.0648 72 60.5C76.1638 60.0624 78.436 54.9491 79.559 51.1442C79.858 50.1312 81.7276 49.9502 82.237 50.8755C84.0012 54.0796 87.0356 57.8297 91 56C97 53.2308 93.8139 43.9573 90.2031 36.8334C84.3135 33.7463 77.6107 32 70.5 32C62.9556 32 55.8702 33.9658 49.7283 37.4132Z" fill="#525151"/>
<ellipse cx="41" cy="85.4" rx="4" ry="2.4" fill="#ED653B" fill-opacity="0.6"/>
<ellipse cx="100" cy="85.4" rx="4" ry="2.4" fill="#ED653B" fill-opacity="0.6"/>
<ellipse cx="8" cy="10" rx="8" ry="10" transform="matrix(-1 0 0 1 56 64)" fill="#525151"/>
<ellipse cx="3" cy="3.5" rx="3" ry="3.5" transform="matrix(-1 0 0 1 53 67)" fill="white"/>
<circle cx="1.5" cy="1.5" r="1.5" transform="matrix(-1 0 0 1 47 74)" fill="white"/>
<ellipse cx="93" cy="74" rx="8" ry="10" fill="#525151"/>
<ellipse cx="91" cy="70.5" rx="3" ry="3.5" fill="white"/>
<circle cx="95.5" cy="75.5" r="1.5" fill="white"/>
<ellipse cx="70" cy="112.5" rx="46" ry="27.5" fill="#FFCEB9"/>
<ellipse cx="50" cy="102.5" rx="3" ry="4.5" fill="#525151"/>
<ellipse cx="93" cy="102.5" rx="3" ry="4.5" fill="#525151"/>
<path d="M103.7 125.228C101.284 121.501 95.1128 119.712 93.3409 119.265C93.0733 119.197 92.814 119.365 92.7665 119.637C92.4519 121.438 91.5668 127.801 93.983 131.528C96.3991 135.255 102.57 137.044 104.342 137.491C104.609 137.559 104.869 137.391 104.916 137.119C105.231 135.319 106.116 128.955 103.7 125.228Z" fill="#00B5AD"/>
<path d="M91.5869 132.274C92.8233 128.688 90.8267 123.617 90.1573 122.088C90.0466 121.835 89.7517 121.733 89.5087 121.864C88.0394 122.656 83.3413 125.419 82.1049 129.005C80.8685 132.591 82.8651 137.663 83.5345 139.192C83.6452 139.444 83.94 139.546 84.183 139.415C85.6524 138.624 90.3505 135.86 91.5869 132.274Z" fill="#00B5AD"/>
<path d="M47 116C56 130.5 88 130.5 96.5 116" stroke="#525151" stroke-width="2.5" stroke-linecap="round" stroke-linejoin="round"/>
<path d="M70.4951 64.338C73.2855 51.4929 77.1195 46.4449 87.6203 36" stroke="#00B5AD" stroke-width="1.24764" stroke-linecap="round"/>
<path d="M67.6436 68.5302C67.9908 66.0542 70.5897 63.5582 70.5897 63.5582C70.5897 63.5582 72.12 66.4601 71.7729 68.9361C71.4258 71.412 69.1248 74.0072 69.1248 74.0072C69.1248 74.0072 67.2965 71.0061 67.6436 68.5302Z" fill="#00B5AD"/>
<path d="M72.8058 61.7851C71.8859 60.3414 71.836 58.1393 71.836 58.1393C71.836 58.1393 73.8286 59.1423 74.7485 60.5859C75.6684 62.0295 75.7182 64.2316 75.7182 64.2316C75.7182 64.2316 73.7257 63.2287 72.8058 61.7851Z" fill="#00B5AD"/>
<path d="M68.1338 59.2662C69.7061 58.3372 72.0064 58.2205 72.0064 58.2205C72.0064 58.2205 70.8161 60.1666 69.2438 61.0957C67.6716 62.0247 65.3712 62.1414 65.3712 62.1414C65.3712 62.1414 66.5616 60.1953 68.1338 59.2662Z" fill="#00B5AD"/>
<path d="M75.17 55.8573C74.2501 54.4137 74.2003 52.2116 74.2003 52.2116C74.2003 52.2116 76.1928 53.2146 77.1127 54.6582C78.0326 56.1018 78.0825 58.3039 78.0825 58.3039C78.0825 58.3039 76.0899 57.3009 75.17 55.8573Z" fill="#00B5AD"/>
<path d="M70.3823 52.4568C72.1218 51.9067 74.3553 52.3235 74.3553 52.3235C74.3553 52.3235 72.7267 53.9617 70.9871 54.5118C69.2476 55.0619 67.0141 54.6451 67.0141 54.6451C67.0141 54.6451 68.6427 53.0069 70.3823 52.4568Z" fill="#00B5AD"/>
<path d="M78.2889 50.6665C77.4782 49.1602 77.587 46.9522 77.587 46.9522C77.587 46.9522 79.4956 48.0883 80.3062 49.5946C81.1169 51.1009 81.0081 53.3089 81.0081 53.3089C81.0081 53.3089 79.0995 52.1728 78.2889 50.6665Z" fill="#00B5AD"/>
<path d="M73.4618 46.9119C75.2146 46.4097 77.4312 46.8892 77.4312 46.8892C77.4312 46.8892 75.7562 48.4838 74.0034 48.9861C72.2506 49.4883 70.034 49.0088 70.034 49.0088C70.034 49.0088 71.709 47.4142 73.4618 46.9119Z" fill="#00B5AD"/>
<path d="M82.3288 45.1839C81.6566 43.6109 81.9581 41.4098 81.9581 41.4098C81.9581 41.4098 83.752 42.7011 84.4242 44.274C85.0964 45.847 84.7949 48.0481 84.7949 48.0481C84.7949 48.0481 83.001 46.7568 82.3288 45.1839Z" fill="#00B5AD"/>
<path d="M78.2371 41.3649C79.9899 40.8626 82.2065 41.3421 82.2065 41.3421C82.2065 41.3421 80.5315 42.9368 78.7787 43.439C77.0259 43.9413 74.8093 43.4618 74.8093 43.4618C74.8093 43.4618 76.4842 41.8672 78.2371 41.3649Z" fill="#00B5AD"/>
</svg>
