<svg width="140" height="156" viewBox="0 0 140 156" fill="none" xmlns="http://www.w3.org/2000/svg">
<path d="M65.4289 21.2838C66.0482 17.5712 69.241 14.997 72.5601 15.5341C75.8792 16.0712 78.0678 19.5161 77.4485 23.2287L76.5696 28.4972L79.0713 23.9054C80.8506 20.6394 84.6192 19.4876 87.4887 21.3328C90.3582 23.178 91.242 27.3214 89.4627 30.5874L80.8713 46.357C79.092 49.6229 75.3234 50.7748 72.4539 48.9296C71.5352 48.3388 70.82 47.5125 70.3306 46.5548C69.3918 46.9355 68.3657 47.0721 67.3271 46.904C66.4761 46.7663 65.6994 46.4374 65.0253 45.9619C64.1212 47.7485 62.5294 49.1039 60.5949 49.5009C57.253 50.1868 54.1535 47.7531 53.6721 44.0652L51.3475 26.2582C50.866 22.5703 53.1849 19.0246 56.5268 18.3388C59.8687 17.6529 62.9681 20.0866 63.4495 23.7745L64.1361 29.0338L65.4289 21.2838Z" fill="#FFF161"/>
<path d="M127 93.8346C127 124.139 100.376 143.272 70 143.272C39.6243 143.272 13 124.139 13 93.8346C13 63.5306 39.6243 30.2721 70 30.2721C100.376 30.2721 127 63.5306 127 93.8346Z" fill="#FFF161"/>
<path d="M82.0638 113.03C85.174 114.864 90.6126 113.51 90.6126 113.51C90.6126 113.51 89.0845 108.592 85.9743 106.757C82.864 104.923 77.4868 105.769 77.4868 105.769C77.4868 105.769 78.9535 111.196 82.0638 113.03Z" fill="#A0BE56"/>
<path d="M72.6639 115.384C74.803 120.331 82.1422 123.71 82.1422 123.71C82.1422 123.71 84.3414 116.607 82.2023 111.66C80.0633 106.714 73.1148 102.834 73.1148 102.834C73.1148 102.834 70.5248 110.438 72.6639 115.384Z" fill="#BBD468"/>
<path d="M52.9329 102.232C50.5427 100.798 50.3154 97.4197 52.4921 95.6784L62.3597 87.7843C66.8307 84.2075 73.206 84.2877 77.5857 87.9758L86.8177 95.7502C88.8879 97.4935 88.6654 100.747 86.3771 102.192L76.2979 108.558C72.4674 110.977 67.6009 111.033 63.716 108.702L52.9329 102.232Z" fill="#FFA046"/>
<ellipse cx="62.9137" cy="98.1695" rx="1.68288" ry="2.20513" fill="#CF7520"/>
<ellipse cx="76.0863" cy="98.1696" rx="1.68288" ry="2.20513" fill="#CF7520"/>
<circle cx="9" cy="9" r="9" transform="matrix(-1 0 0 1 53 76.2721)" fill="#3A3A3A"/>
<ellipse cx="2.7" cy="3.15" rx="2.7" ry="3.15" transform="matrix(-1 0 0 1 50.3 78.9721)" fill="white"/>
<circle cx="1.35" cy="1.35" r="1.35" transform="matrix(-1 0 0 1 44.9 85.2721)" fill="white"/>
<path d="M37.9559 71.6845C42.7786 69.2103 45.3961 69.4612 49.9394 72.3125" stroke="#3A3A3A" stroke-width="2.5" stroke-linecap="round"/>
<circle cx="9" cy="9" r="9" transform="matrix(-1 0 0 1 105 76.2721)" fill="#3A3A3A"/>
<ellipse cx="2.7" cy="3.15" rx="2.7" ry="3.15" transform="matrix(-1 0 0 1 102.3 78.9721)" fill="white"/>
<circle cx="1.35" cy="1.35" r="1.35" transform="matrix(-1 0 0 1 96.9 85.2721)" fill="white"/>
<path d="M103.088 71.6845C98.2655 69.2103 95.648 69.4612 91.1046 72.3125" stroke="#3A3A3A" stroke-width="2.5" stroke-linecap="round"/>
<circle cx="33" cy="104.272" r="12" fill="#FFAA97"/>
<circle cx="108" cy="104.272" r="12" fill="#FFAA97"/>
<path d="M60.1355 83.878C60.1355 96.7002 49.256 107.191 35.7143 107.191C22.1726 107.191 11.2931 96.7002 11.2931 83.878C11.2931 71.0558 22.1726 60.5652 35.7143 60.5652C49.256 60.5652 60.1355 71.0558 60.1355 83.878Z" stroke="#525252" stroke-width="2.58621"/>
<path d="M128.707 83.878C128.707 96.7002 117.827 107.191 104.286 107.191C90.744 107.191 79.8645 96.7002 79.8645 83.878C79.8645 71.0558 90.744 60.5652 104.286 60.5652C117.827 60.5652 128.707 71.0558 128.707 83.878Z" stroke="#525252" stroke-width="2.58621"/>
<path d="M60.2857 82.0702C67.6035 80.824 71.8981 80.8465 79.7143 82.0702V86.612C72.2503 85.4761 67.9944 85.4602 60.2857 86.612V82.0702Z" fill="#525252"/>
</svg>
