<svg width="140" height="156" viewBox="0 0 140 156" fill="none" xmlns="http://www.w3.org/2000/svg">
<path fill-rule="evenodd" clip-rule="evenodd" d="M58.7254 87.1934C65.6416 81.3052 70 72.7124 70 63.1429C70 45.3908 55.0015 31 36.5 31C17.9985 31 3 45.3908 3 63.1429C3 67.7729 4.0203 72.1744 5.85694 76.1514C4.65783 78.6114 4 81.2867 4 84.0844C4 96.1881 16.3122 106 31.5 106C45.3635 106 56.8309 97.8246 58.7254 87.1934Z" fill="#D9DEE5"/>
<path d="M61.7351 85.701C68.0319 80.5978 72 73.1507 72 64.8571C72 49.4721 58.3447 37 41.5 37C24.6553 37 11 49.4721 11 64.8571C11 68.8699 11.9289 72.6845 13.6011 76.1313C12.5094 78.2632 11.9104 80.5818 11.9104 83.0065C11.9104 93.4963 23.12 102 36.9478 102C49.5697 102 60.0102 94.9147 61.7351 85.701Z" fill="#FFDED0"/>
<path fill-rule="evenodd" clip-rule="evenodd" d="M81.2746 87.1934C74.3584 81.3052 70 72.7124 70 63.1429C70 45.3908 84.9985 31 103.5 31C122.002 31 137 45.3908 137 63.1429C137 67.7729 135.98 72.1744 134.143 76.1514C135.342 78.6114 136 81.2867 136 84.0844C136 96.1881 123.688 106 108.5 106C94.6365 106 83.1691 97.8246 81.2746 87.1934Z" fill="#D9DEE5"/>
<path d="M79.2649 85.701C72.9681 80.5978 69 73.1507 69 64.8571C69 49.4721 82.6553 37 99.5 37C116.345 37 130 49.4721 130 64.8571C130 68.8699 129.071 72.6845 127.399 76.1313C128.491 78.2632 129.09 80.5818 129.09 83.0065C129.09 93.4963 117.88 102 104.052 102C91.4303 102 80.9898 94.9147 79.2649 85.701Z" fill="#FFDED0"/>
<path d="M110.488 112.883C85.543 114.32 77.2227 116.068 52.7713 125.53" stroke="#56392B" stroke-width="3.94968" stroke-linecap="round"/>
<path d="M45.943 120.029C50.8925 121.523 54.2614 123.962 53.4971 125.699C52.7328 127.437 47.9889 127.931 43.0395 126.437C38.09 124.944 33.7735 120.964 33.8966 120.685C34.0196 120.405 40.9935 118.535 45.943 120.029Z" fill="#34876F"/>
<g style="mix-blend-mode:multiply">
<path fill-rule="evenodd" clip-rule="evenodd" d="M53.6052 125.186C46.8953 123.164 41.3206 122 34.5244 120.812C41.1152 122.205 46.3581 123.868 52.9126 125.946C53.0309 125.983 53.1495 126.021 53.2687 126.059C53.3649 125.946 53.4415 125.826 53.4971 125.7C53.5699 125.534 53.6052 125.362 53.6052 125.186Z" fill="#34876F" fill-opacity="0.5"/>
</g>
<path d="M50.6128 134.574C53.9581 130.735 55.4464 126.923 53.8384 125.856C52.2305 124.789 47.9562 126.844 44.6109 130.683C41.2655 134.522 39.8322 140.126 40.091 140.298C40.3498 140.47 47.2675 138.413 50.6128 134.574Z" fill="#34876F"/>
<g style="mix-blend-mode:multiply">
<path fill-rule="evenodd" clip-rule="evenodd" d="M54.2147 126.233C49.6775 131.434 45.6223 135.321 40.5503 139.864C45.3352 135.255 48.8346 131.121 53.2093 125.953C53.2882 125.86 53.3674 125.766 53.4469 125.673C53.5906 125.718 53.7216 125.779 53.8385 125.856C53.9917 125.958 54.1167 126.084 54.2147 126.233Z" fill="#34876F" fill-opacity="0.5"/>
</g>
<path d="M61.0358 114.942C65.4719 116.662 68.3828 119.142 67.5475 120.689C66.7122 122.236 62.3133 122.361 57.8771 120.641C53.441 118.921 49.7766 114.956 49.911 114.708C50.0455 114.459 56.5996 113.222 61.0358 114.942Z" fill="#34876F"/>
<g style="mix-blend-mode:multiply">
<path fill-rule="evenodd" clip-rule="evenodd" d="M67.6862 120.223C61.6718 117.895 56.6358 116.435 50.4785 114.868C56.4312 116.61 61.1243 118.505 66.9914 120.875C67.0973 120.918 67.2035 120.961 67.3102 121.004C67.4072 120.906 67.4868 120.801 67.5475 120.689C67.6271 120.542 67.6727 120.386 67.6862 120.223Z" fill="#34876F" fill-opacity="0.5"/>
</g>
<path d="M65.5434 128.743C68.41 125.036 69.5661 121.448 68.0235 120.549C66.4808 119.65 62.6568 121.763 59.7902 125.47C56.9236 129.177 55.9195 134.412 56.1678 134.557C56.4161 134.702 62.6768 132.451 65.5434 128.743Z" fill="#34876F"/>
<g style="mix-blend-mode:multiply">
<path fill-rule="evenodd" clip-rule="evenodd" d="M68.3917 120.877C64.5034 125.9 60.985 129.688 56.5666 134.134C60.7166 129.642 63.7086 125.655 67.4489 120.671C67.5164 120.581 67.5841 120.491 67.6521 120.4C67.7871 120.434 67.9114 120.484 68.0235 120.549C68.1704 120.635 68.2929 120.745 68.3917 120.877Z" fill="#34876F" fill-opacity="0.5"/>
</g>
<path d="M76.5113 109.389C80.8379 111.915 83.4348 114.99 82.2853 116.475C81.1357 117.959 76.5178 117.372 72.1912 114.845C67.8646 112.319 64.7462 107.566 64.9312 107.327C65.1162 107.088 72.1847 106.862 76.5113 109.389Z" fill="#34876F"/>
<g style="mix-blend-mode:multiply">
<path fill-rule="evenodd" clip-rule="evenodd" d="M82.5134 116.009C76.6471 112.587 71.6473 110.235 65.4954 107.588C71.4023 110.385 75.9659 113.138 81.671 116.579C81.7739 116.641 81.8772 116.703 81.9809 116.765C82.0997 116.679 82.2016 116.582 82.2852 116.475C82.3947 116.333 82.4702 116.177 82.5134 116.009Z" fill="#34876F" fill-opacity="0.5"/>
</g>
<path d="M92.7997 106.803C97.1263 109.329 99.7233 112.404 98.5737 113.889C97.4241 115.373 92.8062 114.786 88.4796 112.259C84.1531 109.733 81.0346 104.98 81.2196 104.741C81.4046 104.502 88.4732 104.276 92.7997 106.803Z" fill="#34876F"/>
<g style="mix-blend-mode:multiply">
<path fill-rule="evenodd" clip-rule="evenodd" d="M98.8019 113.423C92.9356 110.001 87.9357 107.649 81.7838 105.002C87.6907 107.799 92.2543 110.552 97.9594 113.993C98.0624 114.055 98.1657 114.117 98.2693 114.179C98.3881 114.093 98.4901 113.996 98.5736 113.889C98.6831 113.747 98.7586 113.591 98.8019 113.423Z" fill="#34876F" fill-opacity="0.5"/>
</g>
<path d="M79.1389 124.658C82.1781 120.727 83.4039 116.924 81.7683 115.97C80.1327 115.017 76.0784 117.257 73.0391 121.188C69.9999 125.118 68.9353 130.668 69.1986 130.822C69.4618 130.975 76.0996 128.589 79.1389 124.658Z" fill="#34876F"/>
<g style="mix-blend-mode:multiply">
<path fill-rule="evenodd" clip-rule="evenodd" d="M82.1585 116.318C78.0361 121.644 74.3058 125.66 69.6213 130.373C74.0213 125.611 77.1934 121.384 81.159 116.099C81.2305 116.004 81.3023 115.908 81.3744 115.812C81.5176 115.849 81.6493 115.901 81.7683 115.97C81.924 116.061 82.0538 116.178 82.1585 116.318Z" fill="#34876F" fill-opacity="0.5"/>
</g>
<path d="M95.4273 122.072C98.4666 118.141 99.6923 114.338 98.0567 113.384C96.4211 112.431 92.3668 114.671 89.3276 118.602C86.2883 122.532 85.2237 128.082 85.487 128.236C85.7502 128.389 92.3881 126.002 95.4273 122.072Z" fill="#34876F"/>
<g style="mix-blend-mode:multiply">
<path fill-rule="evenodd" clip-rule="evenodd" d="M98.447 113.732C94.3246 119.058 90.5942 123.074 85.9097 127.787C90.3097 123.025 93.4818 118.798 97.4475 113.513C97.519 113.418 97.5908 113.322 97.6628 113.226C97.806 113.263 97.9378 113.315 98.0567 113.384C98.2124 113.475 98.3422 113.592 98.447 113.732Z" fill="#34876F" fill-opacity="0.5"/>
</g>
<path fill-rule="evenodd" clip-rule="evenodd" d="M89.7156 113.682C87.7452 112.643 88.5719 110.127 90.7033 109.479C109.85 103.659 111 88.4034 111 70.5C111 47.5802 92.6437 29 70 29C47.3563 29 29 47.5802 29 70.5C29 90.6611 30.4586 107.464 57.4326 111.217C58.6821 111.391 59.7184 112.299 60.084 113.506C65.9393 132.839 83.299 132.349 101.452 131.837C102.033 131.821 102.615 131.804 103.198 131.788C104.135 131.763 104.833 130.892 104.56 129.995C104.283 129.082 104.013 128.496 103.779 127.989C103.344 127.045 103.036 126.376 103.042 124.379C103.048 122.464 103.35 121.813 103.772 120.905C103.861 120.714 103.955 120.512 104.052 120.285C104.755 118.645 103.445 116.95 101.673 116.733C96.2836 116.073 92.4468 115.123 89.7156 113.682Z" fill="#D9DEE5"/>
<path fill-rule="evenodd" clip-rule="evenodd" d="M98.1204 116.344C99.0772 116.508 100.094 116.657 101.176 116.795C98.1746 119.962 96.1195 122.704 95.0466 126.188C94.8422 126.851 94.1576 127.189 93.5176 126.941C92.8775 126.693 92.5244 125.954 92.7288 125.291C93.7892 121.848 95.6696 119.102 98.1204 116.344ZM89.8446 113.9C90.6051 114.288 91.4496 114.64 92.3874 114.959C89.5882 117.631 88.4656 119.851 87.0813 123.315C86.8236 123.959 86.1137 124.24 85.4958 123.941C84.8778 123.643 84.5857 122.878 84.8434 122.233C86.1712 118.911 87.3477 116.518 89.8446 113.9ZM84.5013 108.186C84.8363 109.024 85.2443 109.787 85.7411 110.485C82.2345 113.567 80.7985 115.42 79.3316 119.09C79.0739 119.735 78.364 120.016 77.746 119.717C77.1281 119.418 76.836 118.654 77.0937 118.009C78.7785 113.794 80.5228 111.642 84.3785 108.28C84.418 108.246 84.459 108.214 84.5013 108.186Z" fill="#B7BFCD"/>
<path d="M58.0343 92C55.6782 134.816 79.0941 132.47 103.195 131.791C104.133 131.765 104.835 130.889 104.545 129.996C103.756 127.563 103.032 127.952 103.041 124.928C103.05 121.903 103.813 121.696 104.611 118.839C104.851 117.978 104.213 117.136 103.324 117.044C82.9651 114.937 83.023 110.021 83.5 92" stroke="#B4BCCB" stroke-width="1.5" stroke-linecap="round"/>
<path d="M83.0248 134.389C85.0384 132.204 84.9085 127.63 84.9085 127.63C84.9085 127.63 80.3078 127.905 78.2941 130.09C76.2804 132.274 76.4104 136.849 76.4104 136.849C76.4104 136.849 81.0111 136.573 83.0248 134.389Z" fill="#34876F"/>
<path d="M95.3424 136.327C93.4653 133.705 88.4855 132.833 88.4855 132.833C88.4855 132.833 87.6731 137.784 89.5502 140.406C91.4272 143.029 96.4071 143.9 96.4071 143.9C96.4071 143.9 97.2195 138.949 95.3424 136.327Z" fill="#34876F"/>
<ellipse cx="49.5528" cy="83.2341" rx="4.55279" ry="5.23413" fill="#323232"/>
<ellipse cx="50.9148" cy="81.3162" rx="1.20503" ry="1.06567" fill="white"/>
<ellipse cx="4.55279" cy="5.23413" rx="4.55279" ry="5.23413" transform="matrix(-1 0 0 1 97.2112 78)" fill="#323232"/>
<ellipse cx="1.20503" cy="1.06567" rx="1.20503" ry="1.06567" transform="matrix(-1 0 0 1 95.7976 80.2505)" fill="white"/>
<ellipse cx="45.0975" cy="92.2887" rx="4.09751" ry="2.64342" fill="#FFC4AA"/>
<ellipse cx="96.1364" cy="92.2887" rx="4.09751" ry="2.64342" fill="#FFC4AA"/>
<ellipse cx="1.93269" cy="1.78352" rx="1.93269" ry="1.78352" transform="matrix(-0.993902 0.110268 0.117654 0.993055 84.9725 18.0143)" fill="#FFC547"/>
<ellipse cx="1.93269" cy="1.78352" rx="1.93269" ry="1.78352" transform="matrix(-0.993902 0.110268 0.117654 0.993055 73.4482 12.1864)" fill="#FFC547"/>
<ellipse cx="1.93269" cy="1.78352" rx="1.93269" ry="1.78352" transform="matrix(-0.993902 0.110268 0.117654 0.993055 60.6934 15.0775)" fill="#FFC547"/>
<path d="M83.1174 24.4586L80.8098 36.1651C80.7123 36.66 80.1958 36.9493 79.717 36.7826C72.4874 34.2662 67.1903 33.4345 59.3882 34.3663C58.8786 34.4271 58.4258 34.0226 58.4397 33.5101L58.7834 20.82C58.8031 20.0926 59.6856 19.7486 60.2004 20.2676L64.8852 24.9906C65.2709 25.3795 65.9186 25.2993 66.1915 24.829L70.3696 17.6278C70.7295 17.0075 71.659 17.1135 71.8787 17.7999L74.607 26.3245C74.7654 26.8193 75.334 27.0523 75.791 26.8096L81.9094 23.561C82.5266 23.2333 83.2526 23.7728 83.1174 24.4586Z" fill="#FFC547"/>
</svg>
