<svg width="140" height="156" viewBox="0 0 140 156" fill="none" xmlns="http://www.w3.org/2000/svg">
<path d="M97.5656 137.901C91.6403 138.307 86.1336 136.158 82.1591 132.406C78.7513 136.664 73.6005 139.545 67.6752 139.951C60.3259 140.455 53.6207 137.027 49.6841 131.487C46.7154 133.62 43.1208 134.981 39.1844 135.251C28.3917 135.992 18.9879 128.253 17.7022 117.797C10.2299 115.287 4.63284 108.567 4.04973 100.326C3.51646 92.7897 7.31544 85.9409 13.3586 82.1438C9.14359 78.7884 6.30154 73.7838 5.89513 68.04C5.11886 57.0689 13.5227 47.5556 24.6656 46.7913C24.7915 46.7826 24.9172 46.7751 25.0428 46.7688C24.4758 35.9524 32.8164 26.6406 43.8357 25.8847C46.6961 25.6885 49.4589 26.0879 51.9989 26.9757C55.1025 20.9054 61.2846 16.5555 68.6698 16.049C77.6351 15.434 85.642 20.6701 88.8335 28.4542C90.9478 27.52 93.2623 26.9304 95.7089 26.7625C106.852 25.9982 116.514 34.2725 117.29 45.2435C117.424 47.1337 117.285 48.9806 116.907 50.747C125.685 52.4171 132.582 59.7192 133.232 68.9168C133.556 73.4885 132.285 77.807 129.887 81.3449C132.76 84.5211 134.627 88.6245 134.95 93.1961C135.727 104.167 127.323 113.681 116.18 114.445C116.139 114.448 116.098 114.45 116.057 114.453C116.189 115.172 116.283 115.906 116.336 116.652C117.112 127.623 108.708 137.137 97.5656 137.901Z" fill="url(#paint0_linear_391_292)"/>
<path d="M98.2798 137.901C92.3093 138.307 86.7606 136.158 82.7557 132.406C79.3219 136.664 74.1318 139.545 68.1613 139.951C60.7559 140.455 53.9994 137.027 50.0329 131.487C47.0414 133.62 43.4194 134.981 39.453 135.251C28.5779 135.992 19.1023 128.253 17.8068 117.797C10.2775 115.287 4.63767 108.567 4.05011 100.326C3.51277 92.7897 7.34075 85.9409 13.43 82.1438C9.18285 78.7884 6.31911 73.7838 5.9096 68.04C5.1274 57.0689 13.5954 47.5556 24.8233 46.7913C24.9502 46.7826 25.0769 46.7751 25.2034 46.7688C24.6321 35.9524 33.0364 26.6406 44.1398 25.8847C47.022 25.6885 49.8059 26.0879 52.3653 26.9757C55.4926 20.9054 61.7218 16.5555 69.1635 16.049C78.1972 15.434 86.2652 20.6701 89.481 28.4542C91.6115 27.52 93.9437 26.9304 96.409 26.7625C107.637 25.9982 117.373 34.2725 118.155 45.2435C118.29 47.1337 118.15 48.9806 117.769 50.747C126.614 52.4171 133.563 59.7192 134.219 68.9168C134.545 73.4885 133.265 77.807 130.848 81.3449C133.743 84.5211 135.624 88.6245 135.95 93.1961C136.732 104.167 128.264 113.681 117.036 114.445C116.995 114.448 116.953 114.45 116.912 114.453C117.046 115.172 117.14 115.906 117.194 116.652C117.976 127.623 109.508 137.137 98.2798 137.901Z" fill="#764C24"/>
<path d="M118 87.4201C118 106.632 97.0955 125 70 125C42.9045 125 22 108.41 22 89.1975C22 81.9602 24.9665 73.7617 30.1129 66.3532C26.5324 64.3809 24.1215 60.681 24.1215 56.442C24.1215 50.1314 29.4644 45.0157 36.0552 45.0157C40.5253 45.0157 44.4213 47.3689 46.4658 50.852C53.3651 46.637 61.3684 44 70 44C78.3918 44 86.1897 46.322 92.9567 50.0985C95.0971 47.0338 98.7444 45.0157 102.884 45.0157C109.475 45.0157 114.818 50.1314 114.818 56.442C114.818 60.1349 112.988 63.4186 110.149 65.5074C115.134 72.5082 118 80.3066 118 87.4201Z" fill="#FFCF63"/>
<circle cx="35.8948" cy="56.7895" r="7.30827" fill="#FFE7B1"/>
<circle cx="104.105" cy="56.7895" r="7.30827" fill="#FFE7B1"/>
<path fill-rule="evenodd" clip-rule="evenodd" d="M37.4144 115.448C37.1423 114.161 37 112.843 37 111.5C37 97.4167 52.6553 86 69.5 86C86.3447 86 102 97.4167 102 111.5C102 112.808 101.865 114.093 101.607 115.347C93.2455 121.242 82.2561 125 70 125C57.2594 125 45.8877 121.332 37.4144 115.448Z" fill="#FFE7B1"/>
<g style="mix-blend-mode:multiply" opacity="0.5">
<path fill-rule="evenodd" clip-rule="evenodd" d="M47.4981 50.3843C46.1531 54.8992 45.2365 60.9308 49 62.9999C56.2757 67 63.9212 58.1193 63.9212 58.1193C63.9212 58.1193 62.4999 68.0001 70.9999 68C79.4999 67.9999 78.395 58.1193 78.395 58.1193C78.395 58.1193 83.2631 66.918 90.4999 63.9999C95.1727 62.1157 93.6027 54.7434 91.9036 49.7557C91.8938 49.7696 91.884 49.7834 91.8743 49.7973C85.4264 46.2073 77.9961 44 70 44C61.7754 44 54.1495 46.5067 47.5754 50.5136C47.5499 50.4703 47.5242 50.4272 47.4981 50.3843Z" fill="#FFCF63"/>
</g>
<path d="M70.1342 87.4118V93.4444C70.1342 95.4145 71.7313 97.0115 73.7013 97.0115H74.1997C75.8945 97.0115 77.2684 95.6376 77.2684 93.9428V93.9428" stroke="#6B4A32" stroke-width="2" stroke-linecap="round" stroke-linejoin="round"/>
<path d="M70.1342 87.4118V93.4444C70.1342 95.4145 68.5372 97.0115 66.5671 97.0115H66.0688C64.3739 97.0115 63 95.6376 63 93.9427V93.9427" stroke="#6B4A32" stroke-width="2" stroke-linecap="round" stroke-linejoin="round"/>
<path d="M77.1177 87.9516C77.1177 90.199 73.9573 92.0209 70.0588 92.0209C66.1603 92.0209 63 90.199 63 87.9516C63 85.7042 66.1603 83 70.0588 83C73.9573 83 77.1177 85.7042 77.1177 87.9516Z" fill="#6B4A32"/>
<ellipse cx="66.2624" cy="86.1761" rx="1.02344" ry="0.983047" fill="white"/>
<circle cx="45" cy="82" r="8" fill="#6B4A32"/>
<circle cx="47.7007" cy="80.4658" r="2.76923" transform="rotate(-150 47.7007 80.4658)" fill="white"/>
<circle cx="43.9782" cy="85.3584" r="1.84615" transform="rotate(-150 43.9782 85.3584)" fill="white"/>
<circle cx="96" cy="82" r="8" fill="#6B4A32"/>
<circle cx="98.7007" cy="80.4658" r="2.76923" transform="rotate(-150 98.7007 80.4658)" fill="white"/>
<circle cx="94.9782" cy="85.3584" r="1.84615" transform="rotate(-150 94.9782 85.3584)" fill="white"/>
<circle cx="36.5" cy="98.5" r="7.5" fill="#FEB1AA"/>
<circle cx="103.5" cy="98.5" r="7.5" fill="#FEB1AA"/>
<circle cx="49.25" cy="96.25" r="1.25" fill="#6B4A32" fill-opacity="0.7"/>
<circle cx="53.25" cy="97.25" r="1.25" fill="#6B4A32" fill-opacity="0.7"/>
<circle cx="50.25" cy="100.25" r="1.25" fill="#6B4A32" fill-opacity="0.7"/>
<circle cx="1.25" cy="1.25" r="1.25" transform="matrix(-1 0 0 1 92 95)" fill="#6B4A32" fill-opacity="0.7"/>
<circle cx="1.25" cy="1.25" r="1.25" transform="matrix(-1 0 0 1 88 96)" fill="#6B4A32" fill-opacity="0.7"/>
<circle cx="1.25" cy="1.25" r="1.25" transform="matrix(-1 0 0 1 91 99)" fill="#6B4A32" fill-opacity="0.7"/>
<path fill-rule="evenodd" clip-rule="evenodd" d="M21.0913 21.3466C20.5188 20.9718 19.886 20.8838 19.3554 21.1052C18.8248 21.3266 18.4423 21.8382 18.3058 22.5088C18.1805 23.1248 18.2642 23.8302 18.5416 24.495C18.819 25.1598 19.2614 25.7155 19.7874 26.0598C20.36 26.4346 20.9927 26.5225 21.5234 26.3011C22.054 26.0797 22.4365 25.5682 22.573 24.8976C22.6983 24.2816 22.6146 23.5762 22.3372 22.9114C22.0598 22.2466 21.6174 21.6908 21.0913 21.3466ZM23.6428 27.7404C22.1857 26.9748 20.6922 26.8416 19.4372 27.3652C18.1823 27.8888 17.2263 29.0441 16.7456 30.6182C16.3134 32.0331 16.3464 33.5752 16.8339 34.7435C17.0706 35.311 17.4245 35.6708 17.8856 35.8131C18.3407 35.9536 18.8262 35.8628 19.3236 35.6552C19.8529 35.4344 20.3956 35.0814 20.9288 34.7346C21.3947 34.4315 21.8349 34.1452 22.2022 33.9919C22.5192 33.8597 23.0009 33.7561 23.5107 33.6465C24.7023 33.3905 26.0528 33.1001 26.5257 32.196C26.7505 31.7662 26.7461 31.2646 26.5127 30.7051C26.0253 29.5369 24.9524 28.4286 23.6428 27.7404ZM15.0457 22.9035C15.5763 22.6821 16.209 22.7701 16.7816 23.1448C17.3075 23.4891 17.75 24.0448 18.0274 24.7096C18.3048 25.3745 18.3885 26.0798 18.2632 26.6959C18.1268 27.3665 17.7442 27.878 17.2136 28.0995C16.6829 28.3209 16.0503 28.2329 15.4777 27.8581C14.9516 27.5138 14.5092 26.9581 14.2318 26.2933C13.9544 25.6285 13.8707 24.9231 13.996 24.3071C14.1325 23.6365 14.515 23.1249 15.0457 22.9035ZM26.3619 23.9355C26.0161 23.509 25.5624 23.2836 25.0844 23.3008C24.6997 23.3146 24.3331 23.4924 24.0522 23.8015C23.665 24.2274 23.4657 24.8563 23.5055 25.527C23.538 26.0752 23.7281 26.5895 24.0409 26.9754C24.3867 27.4019 24.8404 27.6273 25.3185 27.6101C25.4839 27.6042 25.6459 27.5679 25.7993 27.5039C26.0026 27.4191 26.1906 27.2855 26.3507 27.1094C26.7379 26.6835 26.9372 26.0546 26.8974 25.3839L26.8974 25.3838C26.8649 24.8358 26.6747 24.3214 26.3619 23.9355ZM13.6581 28.1383C14.2331 28.1627 14.8203 28.4634 15.269 28.9635C15.6357 29.3722 15.8675 29.8692 15.9218 30.3629C15.9817 30.9087 15.8228 31.3897 15.4742 31.7174C15.3536 31.8308 15.2138 31.9205 15.0605 31.9845C14.8572 32.0693 14.6301 32.1089 14.3922 32.0988C13.8172 32.0744 13.23 31.7736 12.7812 31.2736L12.7812 31.2736C12.4145 30.8649 12.1827 30.3679 12.1285 29.8742C12.0686 29.3284 12.2275 28.8474 12.576 28.5197C12.8565 28.256 13.2407 28.1205 13.6581 28.1383Z" fill="#BE7E40" fill-opacity="0.74"/>
<path fill-rule="evenodd" clip-rule="evenodd" d="M119.476 130.347C120.048 129.972 120.681 129.884 121.211 130.105C121.742 130.327 122.125 130.838 122.261 131.509C122.386 132.125 122.303 132.83 122.025 133.495C121.748 134.16 121.305 134.716 120.779 135.06C120.207 135.435 119.574 135.523 119.044 135.301C118.513 135.08 118.13 134.568 117.994 133.898C117.869 133.282 117.952 132.576 118.23 131.911C118.507 131.247 118.95 130.691 119.476 130.347ZM116.924 136.74C118.381 135.975 119.875 135.842 121.13 136.365C122.385 136.889 123.341 138.044 123.821 139.618C124.253 141.033 124.22 142.575 123.733 143.743C123.496 144.311 123.142 144.671 122.681 144.813C122.226 144.954 121.741 144.863 121.243 144.655C120.714 144.434 120.171 144.081 119.638 143.735C119.172 143.431 118.732 143.145 118.365 142.992C118.048 142.86 117.566 142.756 117.056 142.647C115.865 142.39 114.514 142.1 114.041 141.196C113.816 140.766 113.821 140.265 114.054 139.705C114.542 138.537 115.614 137.429 116.924 136.74ZM125.521 131.904C124.991 131.682 124.358 131.77 123.785 132.145C123.259 132.489 122.817 133.045 122.539 133.71C122.262 134.374 122.178 135.08 122.304 135.696C122.44 136.366 122.823 136.878 123.353 137.099C123.884 137.321 124.517 137.233 125.089 136.858C125.615 136.514 126.058 135.958 126.335 135.293C126.612 134.628 126.696 133.923 126.571 133.307C126.434 132.637 126.052 132.125 125.521 131.904ZM114.205 132.936C114.551 132.509 115.004 132.284 115.483 132.301C115.867 132.315 116.234 132.492 116.515 132.801C116.902 133.227 117.101 133.856 117.061 134.527C117.029 135.075 116.839 135.589 116.526 135.975C116.18 136.402 115.727 136.627 115.248 136.61C115.083 136.604 114.921 136.568 114.768 136.504C114.564 136.419 114.376 136.286 114.216 136.109C113.829 135.684 113.63 135.055 113.67 134.384L113.67 134.384C113.702 133.836 113.892 133.321 114.205 132.936ZM126.909 137.138C126.334 137.163 125.747 137.463 125.298 137.964C124.931 138.372 124.699 138.869 124.645 139.363C124.585 139.909 124.744 140.39 125.093 140.717C125.213 140.831 125.353 140.92 125.506 140.984C125.71 141.069 125.937 141.109 126.175 141.099C126.75 141.074 127.337 140.774 127.786 140.274L127.786 140.274C128.152 139.865 128.384 139.368 128.438 138.874C128.498 138.328 128.339 137.847 127.991 137.52C127.71 137.256 127.326 137.121 126.909 137.138Z" fill="#BE7E40" fill-opacity="0.74"/>
<path d="M89.7022 41.9454C89.7156 41.8032 89.7225 41.659 89.7225 41.5131C89.7225 39.0206 87.7155 37 85.2397 37C82.7639 37 80.7569 39.0206 80.7569 41.5131C80.7569 41.7551 80.7758 41.9926 80.8122 42.2243C79.3187 41.3207 77.3855 41.3042 75.8863 42.3367C73.8583 43.7334 73.3926 46.5208 74.8461 48.5626C75.621 49.6511 76.7849 50.3079 78.0101 50.4723C77.8857 50.609 77.7682 50.7545 77.6584 50.9087C76.2049 52.9504 76.6706 55.7379 78.6986 57.1346C80.7267 58.5313 83.549 58.0084 85.0026 55.9666C85.081 55.8564 85.1539 55.744 85.2212 55.6298C85.2885 55.744 85.3614 55.8564 85.4399 55.9666C86.8934 58.0084 89.7158 58.5313 91.7438 57.1346C93.7718 55.7379 94.2376 52.9504 92.784 50.9087C92.6549 50.7273 92.5151 50.558 92.3659 50.4009C93.4419 50.1593 94.4409 49.5322 95.1311 48.5626C96.5847 46.5208 96.1189 43.7334 94.0909 42.3367C92.766 41.4242 91.102 41.331 89.7022 41.9454Z" fill="white"/>
<g style="mix-blend-mode:multiply">
<circle cx="85.493" cy="47.9468" r="3.38163" transform="rotate(24.6549 85.493 47.9468)" fill="#FFCE05" fill-opacity="0.6"/>
</g>
<defs>
<linearGradient id="paint0_linear_391_292" x1="69.5" y1="16" x2="69.5" y2="140" gradientUnits="userSpaceOnUse">
<stop stop-color="#764C24"/>
<stop offset="1" stop-color="#58391B"/>
</linearGradient>
</defs>
</svg>
