<svg width="124" height="124" viewBox="0 0 124 124" fill="none" xmlns="http://www.w3.org/2000/svg">
<rect x="4" y="4" width="116" height="116" rx="8" fill="#F5F0ED"/>
<g filter="url(#filter0_d_380_343)">
<path d="M88.352 76.288C88.352 89.9573 79.552 96.792 61.952 96.792C44.4107 96.792 35.64 89.9573 35.64 76.288C35.64 70.128 37.048 65.4933 39.864 62.384C39.1013 61.504 38.3973 59.9787 37.752 57.808C37.1067 55.5787 36.784 53.3787 36.784 51.208C36.784 44.4613 38.9253 39.68 43.208 36.864C47.4907 33.9893 53.7387 32.552 61.952 32.552C70.1653 32.552 76.4133 33.9893 80.696 36.864C85.0373 39.68 87.208 44.4613 87.208 51.208C87.208 53.3787 86.8853 55.5787 86.24 57.808C85.5947 59.9787 84.8907 61.504 84.128 62.384C86.944 65.4933 88.352 70.128 88.352 76.288ZM59.136 76.904C59.136 79.8373 59.3707 81.7733 59.84 82.712C60.3093 83.592 61.0133 84.032 61.952 84.032C62.9493 84.032 63.6533 83.592 64.064 82.712C64.5333 81.7733 64.768 79.8373 64.768 76.904C64.768 73.9707 64.5333 72.0347 64.064 71.096C63.6533 70.0987 62.9493 69.6 61.952 69.6C61.0133 69.6 60.3093 70.0987 59.84 71.096C59.3707 72.0347 59.136 73.9707 59.136 76.904ZM62.04 55.872C63.8587 55.872 64.768 54.1413 64.768 50.68C64.768 47.16 63.8587 45.4 62.04 45.4C60.104 45.4 59.136 47.16 59.136 50.68C59.136 54.1413 60.104 55.872 62.04 55.872Z" fill="#FFB357"/>
</g>
<rect x="51" y="38" width="3.05882" height="4.58824" rx="1.52941" fill="black"/>
<rect x="73.9412" y="38" width="3.05882" height="4.58824" rx="1.52941" fill="black"/>
<path d="M60.1765 41.0588C61.0631 43.0981 65.4962 43.0981 66.2942 41.0588" stroke="black" stroke-width="2" stroke-linecap="round"/>
<rect x="4" y="4" width="116" height="116" rx="8" stroke="#FFB357" stroke-width="8"/>
<defs>
<filter id="filter0_d_380_343" x="35.64" y="32.552" width="55.712" height="65.24" filterUnits="userSpaceOnUse" color-interpolation-filters="sRGB">
<feFlood flood-opacity="0" result="BackgroundImageFix"/>
<feColorMatrix in="SourceAlpha" type="matrix" values="0 0 0 0 0 0 0 0 0 0 0 0 0 0 0 0 0 0 127 0" result="hardAlpha"/>
<feOffset dx="3" dy="1"/>
<feComposite in2="hardAlpha" operator="out"/>
<feColorMatrix type="matrix" values="0 0 0 0 0.445833 0 0 0 0 0.200374 0 0 0 0 0 0 0 0 1 0"/>
<feBlend mode="normal" in2="BackgroundImageFix" result="effect1_dropShadow_380_343"/>
<feBlend mode="normal" in="SourceGraphic" in2="effect1_dropShadow_380_343" result="shape"/>
</filter>
</defs>
</svg>
