<svg width="149" height="209" viewBox="0 0 149 209" fill="none" xmlns="http://www.w3.org/2000/svg">
<path d="M46.08 34.032C44.5307 40.2293 43.5347 48.4187 43.092 58.6C42.6493 67.4533 41.9853 74.0933 41.1 78.52C47.5187 75.864 53.6053 74.204 59.36 73.54C65.1147 72.6547 72.4187 72.212 81.272 72.212C94.9947 72.212 106.947 75.4213 117.128 81.84C127.309 88.0373 135.056 96.448 140.368 107.072C145.68 117.475 148.336 128.652 148.336 140.604C148.336 145.252 146.787 151.56 143.688 159.528C140.589 167.275 137.38 173.251 134.06 177.456C126.313 187.637 117.349 195.495 107.168 201.028C96.9867 206.34 85.92 208.996 73.968 208.996C64.8933 208.996 56.5933 207.779 49.068 205.344C41.764 202.688 33.9067 199.147 25.496 194.72C16.864 190.072 10.556 185.313 6.572 180.444C2.80933 175.353 0.928 169.045 0.928 161.52C0.928 157.536 2.588 154.327 5.908 151.892C9.44933 149.236 12.7693 147.908 15.868 147.908C17.86 147.908 19.6307 148.461 21.18 149.568C22.7293 150.675 25.2747 152.888 28.816 156.208L37.116 164.176C42.428 168.603 47.6293 171.923 52.72 174.136C58.032 176.349 64.4507 177.456 71.976 177.456C78.8373 177.456 84.3707 176.571 88.576 174.8C96.9867 171.48 103.516 167.164 108.164 161.852C113.033 156.54 115.468 148.019 115.468 136.288C115.468 125 111.705 116.257 104.18 110.06C96.6547 103.641 83.928 100.432 66 100.432C63.5653 100.432 60.024 101.096 55.376 102.424C50.728 103.752 46.1907 105.191 41.764 106.74C31.14 110.281 24.6107 112.052 22.176 112.052C19.0773 112.052 15.9787 110.724 12.88 108.068C9.78133 105.412 8.232 101.871 8.232 97.444C12.216 70.6627 14.208 48.4187 14.208 30.712L13.876 22.412C13.4333 18.428 13.212 15.108 13.212 12.452C13.212 8.46798 15.3147 5.47998 19.52 3.48798C23.9467 1.27465 28.484 0.167984 33.132 0.167984C37.116 0.167984 45.748 0.831989 59.028 2.16L74.964 3.48798C76.956 3.70932 79.944 3.82 83.928 3.82L96.212 3.48798C98.6467 3.26665 102.188 3.15599 106.836 3.15599C113.476 3.15599 119.009 4.15199 123.436 6.14399C127.863 8.13599 130.076 11.3453 130.076 15.772C130.076 22.6333 128.969 27.6133 126.756 30.712C124.543 33.8107 121.997 35.36 119.12 35.36C116.464 35.36 112.037 34.9173 105.84 34.032C97.6507 33.1467 88.0227 32.704 76.956 32.704C69.2093 32.704 58.9173 33.1467 46.08 34.032Z" fill="#FD6C4B"/>
</svg>
