<svg width="130" height="209" viewBox="0 0 130 209" fill="none" xmlns="http://www.w3.org/2000/svg">
<path d="M86.916 34.368C84.7027 77.7493 83.596 112.277 83.596 137.952C83.596 151.232 83.928 163.848 84.592 175.8C86.3627 177.128 89.7933 177.792 94.884 177.792L102.52 177.46C105.619 177.017 108.496 176.796 111.152 176.796C116.907 176.796 121.333 177.792 124.432 179.784C127.752 181.776 129.412 185.649 129.412 191.404C129.412 196.937 127.752 201.253 124.432 204.352C121.333 207.451 114.804 209 104.844 209C96.4333 209 86.252 208.336 74.3 207.008C71.4227 206.787 68.656 206.565 66 206.344C63.344 206.123 60.9093 206.012 58.696 206.012C46.5227 206.233 37.448 206.676 31.472 207.34C25.496 208.004 18.7453 208.336 11.22 208.336C4.35867 208.336 0.928 203.135 0.928 192.732C0.928 182.772 7.34667 177.792 20.184 177.792C22.176 177.792 25.3853 178.013 29.812 178.456C33.5747 179.12 37.5587 179.452 41.764 179.452C44.1987 179.452 46.1907 179.341 47.74 179.12C47.9613 164.291 48.736 142.711 50.064 114.38C51.392 81.18 52.056 56.612 52.056 40.676C50.9493 40.8973 47.076 42.4467 40.436 45.324C30.2547 50.4147 22.7293 52.96 17.86 52.96C15.204 52.96 12.7693 51.632 10.556 48.976C8.34267 46.0987 7.236 42.7787 7.236 39.016C7.236 35.2533 9.56 31.6013 14.208 28.06C18.856 24.5187 26.3813 19.8707 36.784 14.116C42.5387 11.2387 48.072 8.02932 53.384 4.48798C54.712 3.60266 56.5933 2.71733 59.028 1.832C61.684 0.946661 63.676 0.503993 65.004 0.503993C70.7587 0.503993 75.96 1.72132 80.608 4.15599C85.4773 6.36932 87.912 9.35732 87.912 13.12L86.916 34.368Z" fill="#976BCF"/>
</svg>
