<svg width="158" height="208" viewBox="0 0 158 208" fill="none" xmlns="http://www.w3.org/2000/svg">
<path d="M94.58 73.2C112.729 77.184 127.78 85.0413 139.732 96.772C151.684 108.503 157.66 122.115 157.66 137.608C157.66 146.904 155.447 155.979 151.02 164.832C143.937 178.997 133.313 189.621 119.148 196.704C105.204 203.787 89.0467 207.328 70.676 207.328C59.1667 207.328 48.8747 205.225 39.8 201.02C30.7253 196.593 21.7613 190.728 12.908 183.424C9.588 180.325 6.6 175.899 3.944 170.144C1.50933 164.389 0.292 159.631 0.292 155.868C0.292 150.999 1.62 147.125 4.276 144.248C7.15333 141.149 10.916 139.6 15.564 139.6C20.212 139.6 23.864 140.707 26.52 142.92C29.176 145.133 32.3853 148.675 36.148 153.544C39.6893 158.192 42.8987 161.955 45.776 164.832C48.6533 167.488 52.5267 169.812 57.396 171.804C62.2653 173.796 68.352 174.792 75.656 174.792C90.4853 174.792 102.105 171.14 110.516 163.836C118.927 156.532 123.132 146.24 123.132 132.96C123.132 127.869 120.365 122.779 114.832 117.688C109.299 112.376 104.097 108.613 99.228 106.4C96.3507 104.851 91.0387 103.301 83.292 101.752C72.8893 99.096 65.032 96.5507 59.72 94.116C54.6293 91.46 52.084 87.3653 52.084 81.832C52.084 78.0693 53.744 74.4173 57.064 70.876C60.384 67.1133 65.364 62.4653 72.004 56.932C78.644 51.3987 83.624 46.8613 86.944 43.32C90.264 39.5573 91.924 35.7947 91.924 32.032C87.7187 30.9253 81.4107 30.372 73 30.372C69.2373 30.372 63.5933 30.5933 56.068 31.036C49.428 31.4787 44.3373 31.7 40.796 31.7C32.828 31.7 25.9667 30.372 20.212 27.716C14.6787 25.06 11.912 21.6293 11.912 17.424C11.912 12.776 12.3547 9.12399 13.24 6.468C14.1253 3.59066 15.7853 1.81999 18.22 1.15599C19.7693 0.491994 22.536 0.159998 26.52 0.159998C37.3653 0.159998 46.772 0.491994 54.74 1.15599C63.5933 1.59866 70.344 1.82 74.992 1.82L102.548 1.48798C125.124 1.48798 136.412 6.91065 136.412 17.756C136.412 25.9453 132.207 35.2413 123.796 45.644C115.607 55.8253 105.868 65.0107 94.58 73.2Z" fill="#13BF88"/>
</svg>
