<svg width="172" height="210" viewBox="0 0 172 210" fill="none" xmlns="http://www.w3.org/2000/svg">
<path d="M147.348 20.752C154.652 32.04 160.517 44.988 164.944 59.596C169.371 73.9827 171.584 88.7013 171.584 103.752C171.584 121.68 168.485 138.723 162.288 154.88C156.312 171.037 147.237 184.207 135.064 194.388C123.112 204.569 108.504 209.66 91.24 209.66C75.0827 209.66 60.2533 205.565 46.752 197.376C33.2507 188.965 23.0693 179.227 16.208 168.16C11.1173 159.971 7.244 150.785 4.588 140.604C1.932 130.201 0.604001 119.799 0.604001 109.396C0.604001 91.2467 4.36667 73.54 11.892 56.276C19.6387 39.012 30.2627 25.1787 43.764 14.776C56.6013 5.25866 71.32 0.5 87.92 0.5C106.291 0.5 126.1 7.25067 147.348 20.752ZM58.372 43.66C56.38 46.98 54.388 49.968 52.396 52.624C47.5267 59.928 43.9853 66.1253 41.772 71.216C39.5587 76.0853 37.5667 83.6107 35.796 93.792C34.9107 98.44 34.468 103.863 34.468 110.06C34.468 125.775 37.5667 139.387 43.764 150.896C50.1827 162.184 58.9253 169.82 69.992 173.804C75.304 175.796 81.28 176.792 87.92 176.792C104.52 176.792 117.025 169.488 125.436 154.88C134.068 140.051 138.384 121.791 138.384 100.1C138.384 79.9587 134.621 63.4693 127.096 50.632C119.571 37.5733 107.951 31.044 92.236 31.044C85.8173 31.044 80.284 32.04 75.636 34.032C71.2093 36.024 65.4547 39.2333 58.372 43.66Z" fill="#E95A6E"/>
</svg>
