<svg width="158" height="210" viewBox="0 0 158 210" fill="none" xmlns="http://www.w3.org/2000/svg">
<path d="M112.824 99.108C126.325 104.42 137.171 111.503 145.36 120.356C153.549 129.209 157.644 139.391 157.644 150.9C157.644 154.22 156.869 158.425 155.32 163.516C153.992 168.385 152.111 172.591 149.676 176.132C135.068 198.708 109.283 209.996 72.32 209.996C53.064 209.996 36.3533 206.123 22.188 198.376C8.02267 190.408 0.940001 178.567 0.940001 162.852C0.940001 140.497 16.3227 121.352 47.088 105.416C18.3147 94.792 3.928 79.0773 3.928 58.272C3.928 45.656 7.46933 35.032 14.552 26.4C21.6347 17.768 30.9307 11.3493 42.44 7.14399C54.1707 2.93865 66.8973 0.835989 80.62 0.835989C90.8013 0.835989 101.204 3.27066 111.828 8.13999C122.452 12.788 129.756 18.8747 133.74 26.4C137.724 34.8107 139.716 42.668 139.716 49.972C139.716 59.4893 137.724 68.232 133.74 76.2C129.977 84.168 123.005 91.804 112.824 99.108ZM78.296 89.148C85.3787 84.5 90.8013 80.7373 94.564 77.86C98.548 74.7613 101.868 71.1093 104.524 66.904C107.401 62.4773 108.84 57.3867 108.84 51.632C108.84 44.992 106.184 39.4587 100.872 35.032C95.56 30.6053 89.1413 28.392 81.616 28.392C65.4587 28.392 54.1707 31.1587 47.752 36.692C41.5547 42.2253 38.456 48.7547 38.456 56.28C38.456 62.256 40.448 67.3467 44.432 71.552C48.416 75.536 52.8427 78.7453 57.712 81.18C62.8027 83.3933 69.664 86.0493 78.296 89.148ZM122.452 148.576C122.452 144.813 120.017 140.829 115.148 136.624C110.5 132.419 104.967 128.767 98.548 125.668C92.1293 122.348 86.7067 120.135 82.28 119.028C74.7547 122.127 66.4547 127.107 57.38 133.968C48.3053 140.608 42.772 145.477 40.78 148.576C38.5667 151.675 37.0173 154.331 36.132 156.544C35.468 158.536 35.136 160.971 35.136 163.848C35.136 167.168 37.128 170.377 41.112 173.476C45.096 176.353 49.8547 178.677 55.388 180.448C60.9213 182.219 65.68 183.104 69.664 183.104C85.3787 183.104 98.1053 180.005 107.844 173.808C117.583 167.389 122.452 158.979 122.452 148.576Z" fill="#FFB357"/>
</svg>
