<svg width="182" height="211" viewBox="0 0 182 211" fill="none" xmlns="http://www.w3.org/2000/svg">
<path d="M67.352 10.8C67.352 21.6453 65.36 34.2613 61.376 48.648C57.6133 62.8133 52.08 80.2987 44.776 101.104L37.14 124.012C40.9027 124.676 44.776 125.008 48.76 125.008C55.6213 125.008 65.9133 124.344 79.636 123.016C93.3587 121.688 103.208 121.024 109.184 121.024L108.852 84.504C108.409 59.272 108.188 40.68 108.188 28.728C108.188 13.0133 113.389 5.15599 123.792 5.15599C131.981 5.15599 137.183 7.25865 139.396 11.464C141.831 15.6693 143.048 21.9773 143.048 30.388C143.048 39.02 142.384 52.4107 141.056 70.56C140.835 74.1013 140.503 79.9667 140.06 88.156C139.617 96.3453 139.396 103.428 139.396 109.404L139.728 120.028L146.368 119.696C151.68 119.253 155.775 119.032 158.652 119.032C163.964 119.032 169.055 120.803 173.924 124.344C178.793 127.664 181.228 131.648 181.228 136.296C181.228 141.829 180.343 146.145 178.572 149.244C177.023 152.343 175.141 153.892 172.928 153.892C169.165 153.892 164.407 153.449 158.652 152.564C157.324 152.564 155.332 152.453 152.676 152.232C150.02 151.789 147.475 151.568 145.04 151.568L139.396 151.9L139.728 196.72C139.728 201.368 138.179 204.909 135.08 207.344C131.981 209.779 128.44 210.996 124.456 210.996C119.587 210.996 115.271 209.447 111.508 206.348C107.745 203.249 105.864 199.376 105.864 194.728C105.864 179.899 106.085 168.279 106.528 159.868C106.749 157.876 106.86 155.441 106.86 152.564C100.22 152.343 88.7107 153.117 72.332 154.888C56.8387 156.659 45.108 157.544 37.14 157.544C26.9587 157.544 18.3267 156.105 11.244 153.228C4.38267 150.351 0.952001 145.813 0.952001 139.616C0.952001 133.64 2.16933 126.336 4.604 117.704C7.03867 109.072 10.6907 97.452 15.56 82.844C17.7733 77.0893 19.4333 72.3307 20.54 68.568C24.524 57.28 27.512 47.7627 29.504 40.016C31.496 32.048 33.7093 22.42 36.144 11.132C37.0293 7.59066 38.9107 4.93466 41.788 3.16399C44.6653 1.39332 47.9853 0.507986 51.748 0.507986C55.732 0.507986 59.2733 1.50399 62.372 3.49599C65.692 5.26666 67.352 7.70133 67.352 10.8Z" fill="#FFB357"/>
</svg>
