<svg width="148" height="209" viewBox="0 0 148 209" fill="none" xmlns="http://www.w3.org/2000/svg">
<path d="M88.248 32.04C80.7227 34.9173 74.304 38.68 68.992 43.328C63.68 47.7547 58.9213 53.1773 54.716 59.596L49.404 67.896C45.42 73.872 42.432 78.7413 40.44 82.504C38.448 86.2667 37.12 90.2507 36.456 94.456C47.3013 83.3893 62.7947 77.856 82.936 77.856C91.568 77.856 100.643 80.2907 110.16 85.16C119.899 90.0293 127.756 95.6733 133.732 102.092C137.495 106.297 140.593 112.716 143.028 121.348C145.684 129.98 147.012 139.165 147.012 148.904C147.012 156.651 144.688 164.619 140.04 172.808C135.392 180.776 129.637 187.748 122.776 193.724C116.136 199.7 109.939 203.463 104.184 205.012C95.3307 207.225 87.6947 208.332 81.276 208.332C66.668 208.332 53.1667 204.348 40.772 196.38C28.3773 188.412 18.528 177.788 11.224 164.508C3.92 151.007 0.268001 136.399 0.268001 120.684C0.268001 98.9933 5.46933 78.2987 15.872 58.6C26.496 38.68 40.44 22.5227 57.704 10.128C60.5813 8.13599 65.672 6.03333 72.976 3.82C80.5013 1.38532 87.1413 0.167984 92.896 0.167984C103.741 0.167984 109.164 4.48399 109.164 13.116C109.164 18.2067 107.283 22.1907 103.52 25.068C99.9787 27.9453 94.888 30.2693 88.248 32.04ZM74.968 177.788C80.0587 177.788 84.3747 177.567 87.916 177.124C91.4573 176.46 94.6667 175.243 97.544 173.472C101.971 170.373 105.844 166.721 109.164 162.516C112.705 158.089 114.476 153.884 114.476 149.9C114.476 134.628 110.713 123.893 103.188 117.696C95.884 111.499 87.252 108.289 77.292 108.068C72.2013 108.068 66.336 109.507 59.696 112.384C53.2773 115.04 47.744 118.581 43.096 123.008C38.6693 127.435 36.456 131.751 36.456 135.956C36.456 145.473 38.448 153.441 42.432 159.86C46.6373 166.057 51.728 170.595 57.704 173.472C63.68 176.349 69.4347 177.788 74.968 177.788Z" fill="#E95C70"/>
</svg>
