<svg width="153" height="208" viewBox="0 0 153 208" fill="none" xmlns="http://www.w3.org/2000/svg">
<path d="M48.412 173.472C55.9373 173.915 60.9173 174.136 63.352 174.136C70.8773 174.136 77.5173 174.025 83.272 173.804C89.248 173.583 94.3387 173.361 98.544 173.14C109.389 172.476 119.128 172.144 127.76 172.144C136.171 172.144 142.368 174.357 146.352 178.784C150.336 183.211 152.328 189.076 152.328 196.38C152.328 199.921 150.004 202.799 145.356 205.012C140.708 207.004 135.949 208 131.08 208C126.875 208 118.132 207.557 104.852 206.672C88.916 205.344 76.4107 204.68 67.336 204.68C62.4667 204.68 56.712 205.012 50.072 205.676C47.416 205.897 44.2067 206.119 40.444 206.34C36.6813 206.561 32.476 206.672 27.828 206.672C18.9747 206.672 12.224 205.455 7.576 203.02C2.928 200.585 0.604001 196.159 0.604001 189.74C0.604001 184.207 2.81733 178.563 7.244 172.808C11.6707 167.053 17.868 160.192 25.836 152.224L33.804 144.256C37.3453 140.493 43.8747 134.075 53.392 125C69.1067 110.835 81.28 98.3293 89.912 87.484C98.7653 76.6387 103.192 65.904 103.192 55.28C103.192 48.4187 99.872 42.8853 93.232 38.68C86.8133 34.2533 79.3987 32.04 70.988 32.04C58.1507 32.04 48.8547 34.9173 43.1 40.672C37.5667 46.2053 34.8 54.284 34.8 64.908C34.8 67.564 33.2507 69.9987 30.152 72.212C27.2747 74.204 23.6227 75.2 19.196 75.2C12.9987 75.2 8.68267 72.9867 6.248 68.56C3.81333 64.1333 2.596 58.7107 2.596 52.292C2.596 42.1107 5.69467 33.1467 11.892 25.4C18.0893 17.432 26.5 11.2347 37.124 6.808C47.9693 2.38132 59.9213 0.167984 72.98 0.167984C82.276 0.167984 91.904 2.49199 101.864 7.13999C112.045 11.5667 120.456 17.6533 127.096 25.4C133.957 32.9253 137.388 41.2253 137.388 50.3C137.388 64.0227 133.957 77.0813 127.096 89.476C120.235 101.871 112.156 112.937 102.86 122.676C93.7853 132.193 81.944 143.481 67.336 156.54C60.2533 162.516 53.9453 168.16 48.412 173.472Z" fill="#55DBFE"/>
</svg>
