<svg width="146" height="209" viewBox="0 0 146 209" fill="none" xmlns="http://www.w3.org/2000/svg">
<path d="M57.72 175.464C65.2453 173.029 72.4387 168.603 79.3 162.184C86.3827 155.765 92.248 148.572 96.896 140.604C101.765 132.415 104.643 124.557 105.528 117.032C99.3307 121.459 93.0227 124.557 86.604 126.328C80.1853 128.099 72.7707 128.984 64.36 128.984C53.072 128.984 43.776 127.103 36.472 123.34C29.168 119.356 21.4213 113.712 13.232 106.408C11.904 105.08 10.244 102.203 8.252 97.776C6.26 93.128 4.48933 87.484 2.94 80.844C1.39067 73.9827 0.616001 67.0107 0.616001 59.928C0.616001 53.5093 2.608 46.7587 6.592 39.676C10.576 32.5933 15.556 26.2853 21.532 20.752C27.7293 14.9973 33.5947 10.9027 39.128 8.468C44.2187 6.25467 50.084 4.37333 56.724 2.82399C63.5853 1.05332 69.34 0.167984 73.988 0.167984C89.7027 0.167984 102.872 3.81998 113.496 11.124C124.341 18.428 132.309 28.1667 137.4 40.34C142.491 52.5133 145.036 66.0147 145.036 80.844C145.036 106.297 139.392 129.537 128.104 150.564C116.816 171.369 102.54 187.527 85.276 199.036C82.3987 201.028 77.4187 203.241 70.336 205.676C63.4747 207.889 57.1667 208.996 51.412 208.996C46.9853 208.996 43.112 207.004 39.792 203.02C36.472 199.036 34.812 194.499 34.812 189.408C34.812 185.867 36.0293 183.432 38.464 182.104C40.8987 180.555 44.8827 179.005 50.416 177.456L57.72 175.464ZM73.988 28.388C70.4467 28.388 66.2413 29.1627 61.372 30.712C56.724 32.04 52.74 33.7 49.42 35.692C45.6573 37.9053 42.0053 41.336 38.464 45.984C35.144 50.4107 33.484 53.8413 33.484 56.276C33.484 85.2707 45.2147 99.768 68.676 99.768C73.988 99.768 79.8533 98.6613 86.272 96.448C92.912 94.0133 98.4453 90.6933 102.872 86.488C107.299 82.2827 109.512 77.524 109.512 72.212C109.512 57.604 106.413 46.648 100.216 39.344C94.24 32.04 85.4973 28.388 73.988 28.388Z" fill="#FE6F4E"/>
</svg>
