<svg width="155" height="210" viewBox="0 0 155 210" fill="none" xmlns="http://www.w3.org/2000/svg">
<path d="M154.036 15.112C151.159 28.6133 147.507 42.004 143.08 55.284C138.875 68.564 133.452 83.836 126.812 101.1C115.524 131.423 107.556 155.88 102.908 174.472C99.1453 187.088 95.604 196.163 92.284 201.696C88.964 207.229 85.0907 209.996 80.664 209.996C77.1227 209.996 72.364 207.893 66.388 203.688C64.8387 201.696 64.064 198.929 64.064 195.388C64.064 192.511 64.8387 188.305 66.388 182.772C67.9373 177.017 69.8187 170.709 72.032 163.848L76.016 151.896C78.8933 142.379 83.7627 129.541 90.624 113.384C95.7147 100.989 100.252 89.0373 104.236 77.528C108.441 66.0187 112.536 52.296 116.52 36.36C105.011 39.9013 93.612 41.672 82.324 41.672C76.7907 41.672 68.38 40.8973 57.092 39.348C47.796 38.02 41.156 37.356 37.172 37.356C37.3933 40.676 39.0533 46.984 42.152 56.28C45.9147 65.7973 47.796 72.9907 47.796 77.86C47.796 80.7373 46.8 83.172 44.808 85.164C42.816 87.156 39.6067 88.152 35.18 88.152C29.4253 88.152 24.9987 86.3813 21.9 82.84C19.0227 79.0773 16.588 74.872 14.596 70.224C12.8253 65.3547 11.4973 62.0347 10.612 60.264C7.51333 53.1813 5.07867 45.8773 3.308 38.352C1.53733 30.6053 0.652 23.744 0.652 17.768C0.652 14.2267 1.53733 11.128 3.308 8.47199C5.3 5.81598 7.51333 4.48798 9.948 4.48798C13.268 4.93066 18.248 5.81599 24.888 7.14399C35.512 8.91466 44.3653 10.3533 51.448 11.46C58.752 12.3453 66.4987 12.788 74.688 12.788C94.8293 12.788 110.323 9.24666 121.168 2.16399C122.717 1.27866 125.041 0.835989 128.14 0.835989C133.895 0.835989 139.649 2.27466 145.404 5.15199C151.159 7.80798 154.036 11.128 154.036 15.112Z" fill="#D7948D"/>
</svg>
