<svg width="124" height="124" viewBox="0 0 124 124" fill="none" xmlns="http://www.w3.org/2000/svg">
<rect x="4" y="4" width="116" height="116" rx="8" fill="#F5F0ED"/>
<g filter="url(#filter0_d_380_273)">
<path d="M60.192 57.544C60.72 57.0747 62.128 56.4587 64.416 55.696C66.704 54.9333 69.2853 54.552 72.16 54.552C75.0933 54.552 77.5573 54.992 79.552 55.872C81.6053 56.6933 83.1893 57.7493 84.304 59.04C85.4773 60.3307 86.3867 61.944 87.032 63.88C88.088 67.048 88.616 70.2747 88.616 73.56C88.616 76.8453 88.4693 79.3387 88.176 81.04C87.9413 82.6827 87.296 84.5307 86.24 86.584C85.2427 88.6373 83.864 90.368 82.104 91.776C80.4027 93.184 77.9387 94.3867 74.712 95.384C71.544 96.3227 67.8187 96.792 63.536 96.792C54.3253 96.792 47.3733 94.2693 42.68 89.224C37.9867 84.12 35.64 75.9067 35.64 64.584C35.64 53.2027 37.84 45.0187 42.24 40.032C46.64 34.9867 53.328 32.464 62.304 32.464C68.464 32.464 73.8027 32.9333 78.32 33.872C82.896 34.752 85.184 35.808 85.184 37.04C85.184 38.5653 84.5973 41.2347 83.424 45.048C82.3093 48.8613 81.2827 50.768 80.344 50.768C80.0507 50.768 79.1707 50.6213 77.704 50.328C73.7147 49.5067 70.0773 49.096 66.792 49.096C63.5067 49.096 61.3947 49.9173 60.456 51.56C59.5173 53.144 59.048 55.4907 59.048 58.6C59.2827 58.3067 59.664 57.9547 60.192 57.544ZM62.128 65.464C60.4267 65.464 59.576 68.632 59.576 74.968C59.576 81.2453 60.4267 84.384 62.128 84.384C63.9467 84.384 64.856 81.2453 64.856 74.968C64.856 68.632 63.9467 65.464 62.128 65.464Z" fill="#E95C70"/>
</g>
<rect x="51" y="41" width="3.05882" height="4.58824" rx="1.52941" fill="black"/>
<rect x="73.9412" y="41" width="3.05882" height="4.58824" rx="1.52941" fill="black"/>
<path d="M60.1765 44.0588C61.0631 46.0981 65.4962 46.0981 66.2942 44.0588" stroke="black" stroke-width="2" stroke-linecap="round"/>
<rect x="4" y="4" width="116" height="116" rx="8" stroke="#E95C70" stroke-width="8"/>
<defs>
<filter id="filter0_d_380_273" x="35.64" y="32.464" width="55.976" height="65.328" filterUnits="userSpaceOnUse" color-interpolation-filters="sRGB">
<feFlood flood-opacity="0" result="BackgroundImageFix"/>
<feColorMatrix in="SourceAlpha" type="matrix" values="0 0 0 0 0 0 0 0 0 0 0 0 0 0 0 0 0 0 127 0" result="hardAlpha"/>
<feOffset dx="3" dy="1"/>
<feComposite in2="hardAlpha" operator="out"/>
<feColorMatrix type="matrix" values="0 0 0 0 0.445833 0 0 0 0 0.200374 0 0 0 0 0 0 0 0 1 0"/>
<feBlend mode="normal" in2="BackgroundImageFix" result="effect1_dropShadow_380_273"/>
<feBlend mode="normal" in="SourceGraphic" in2="effect1_dropShadow_380_273" result="shape"/>
</filter>
</defs>
</svg>
