<svg width="124" height="124" viewBox="0 0 124 124" fill="none" xmlns="http://www.w3.org/2000/svg">
<rect x="4" y="4" width="116" height="116" rx="8" fill="#F5F0ED"/>
<g filter="url(#filter0_d_380_133)">
<path d="M85.16 49.008C85.16 54.9333 82.8133 59.3627 78.12 62.296C78.7653 62.5893 79.5867 63.2933 80.584 64.408C81.64 65.5227 82.52 66.6373 83.224 67.752C85.0427 70.6267 85.952 74.0293 85.952 77.96C85.952 84.4133 83.6347 89.1653 79 92.216C74.3653 95.2667 68 96.792 59.904 96.792C55.9147 96.792 52.1307 96.4693 48.552 95.824C45.032 95.12 42.3333 94.3573 40.456 93.536C38.5787 92.656 37.64 91.864 37.64 91.16C37.64 87.9333 37.992 85.088 38.696 82.624C39.4 80.16 40.192 78.4293 41.072 77.432C41.952 76.376 42.8027 75.848 43.624 75.848C43.8587 75.848 45.4133 76.376 48.288 77.432C51.1627 78.488 53.9787 79.016 56.736 79.016C59.552 79.016 60.96 78.136 60.96 76.376C60.96 73.9707 57.9973 72.68 52.072 72.504C49.7253 72.4453 48.4347 72.3867 48.2 72.328C46.968 71.9173 46.352 69.336 46.352 64.584C46.352 59.832 46.968 57.2213 48.2 56.752C48.4347 56.6347 49.7253 56.576 52.072 56.576C57.9973 56.4587 60.96 55.256 60.96 52.968C60.96 51.208 59.6693 50.328 57.088 50.328C54.5653 50.328 51.7493 50.944 48.64 52.176C45.5307 53.408 43.8293 54.024 43.536 54.024C42.1867 54.024 40.9547 52.0587 39.84 48.128C38.7253 44.1973 38.168 41.4107 38.168 39.768C38.168 38.2427 39.8693 36.688 43.272 35.104C47.0267 33.4027 52.5413 32.552 59.816 32.552C76.712 32.552 85.16 38.0373 85.16 49.008Z" fill="#13BF88"/>
</g>
<rect x="49" y="41" width="3.05882" height="4.58824" rx="1.52941" fill="black"/>
<rect x="71.9412" y="41" width="3.05882" height="4.58824" rx="1.52941" fill="black"/>
<path d="M58.1765 44.0588C59.0631 46.0981 63.4962 46.0981 64.2942 44.0588" stroke="black" stroke-width="2" stroke-linecap="round"/>
<rect x="4" y="4" width="116" height="116" rx="8" stroke="#13BF88" stroke-width="8"/>
<defs>
<filter id="filter0_d_380_133" x="37.64" y="32.552" width="51.312" height="65.24" filterUnits="userSpaceOnUse" color-interpolation-filters="sRGB">
<feFlood flood-opacity="0" result="BackgroundImageFix"/>
<feColorMatrix in="SourceAlpha" type="matrix" values="0 0 0 0 0 0 0 0 0 0 0 0 0 0 0 0 0 0 127 0" result="hardAlpha"/>
<feOffset dx="3" dy="1"/>
<feComposite in2="hardAlpha" operator="out"/>
<feColorMatrix type="matrix" values="0 0 0 0 0.445833 0 0 0 0 0.200374 0 0 0 0 0 0 0 0 1 0"/>
<feBlend mode="normal" in2="BackgroundImageFix" result="effect1_dropShadow_380_133"/>
<feBlend mode="normal" in="SourceGraphic" in2="effect1_dropShadow_380_133" result="shape"/>
</filter>
</defs>
</svg>
