<svg width="269" height="175" viewBox="0 0 269 175" fill="none" xmlns="http://www.w3.org/2000/svg">
<path fill-rule="evenodd" clip-rule="evenodd" d="M116.452 0.106934C139.446 0.106934 159.484 12.767 169.974 31.4971C176.953 28.7348 184.561 27.2168 192.523 27.2168C222.191 27.2168 246.937 48.2932 252.605 76.2902C262.341 85.7395 268.391 98.966 268.391 113.606C268.391 142.322 245.112 165.601 216.396 165.601C207.133 165.601 198.436 163.179 190.904 158.933C180.011 168.857 165.528 174.907 149.632 174.907C130.059 174.907 112.629 165.734 101.406 151.453C90.7832 160.288 77.128 165.601 62.2318 165.601C28.3759 165.601 0.930176 138.155 0.930176 104.299C0.930176 71.8939 26.0742 45.3614 57.9167 43.1471C65.6882 18.2097 88.9562 0.106934 116.452 0.106934Z" fill="#258ACB"/>
</svg>
