<svg width="149" height="102" viewBox="0 0 149 102" fill="none" xmlns="http://www.w3.org/2000/svg">
<path fill-rule="evenodd" clip-rule="evenodd" d="M25.7099 79.9399C25.1451 79.9797 24.5749 80 24 80C10.7452 80 0 69.2549 0 56C0 43.7585 9.16483 33.658 21.0073 32.1848C21.0024 31.957 21 31.7288 21 31.5C21 14.103 35.103 0 52.5 0C63.7839 0 73.682 5.93311 79.2449 14.8499C83.7333 11.7893 89.1577 10 95 10C108.784 10 120.241 19.9597 122.568 33.075C123.206 33.0251 123.85 33 124.5 33C138.031 33 149 43.969 149 57.5C149 71.031 138.031 82 124.5 82C121.939 82 119.47 81.6072 117.149 80.8782C114.083 93.0166 103.091 102 90 102C81.0829 102 73.1395 97.8315 68.0117 91.3372C63.4638 96.061 57.0751 99 50 99C38.2397 99 28.3759 90.8796 25.7099 79.9399Z" fill="white"/>
</svg>
