<svg width="98" height="81" viewBox="0 0 98 81" fill="none" xmlns="http://www.w3.org/2000/svg">
<path fill-rule="evenodd" clip-rule="evenodd" d="M79 71C76.1644 71 73.4739 70.3789 71.0571 69.2651C67.1148 76.2693 59.6099 81 51 81C39.5563 81 30.0646 72.6426 28.2957 61.698C26.0232 62.54 23.5653 63 21 63C9.40201 63 0 53.5979 0 42C0 31.0754 8.34207 22.0991 19.0038 21.0938C19.2204 9.40723 28.7616 0 40.5 0C47.8665 0 54.3676 3.70459 58.242 9.35254C62.137 5.4292 67.5348 3 73.5 3C85.3741 3 95 12.626 95 24.5C95 29.2358 93.4688 33.6143 90.8743 37.1667C95.2184 40.6487 98 45.9995 98 52C98 62.4934 89.4934 71 79 71Z" fill="white"/>
</svg>
