<svg width="725" height="725" viewBox="0 0 725 725" fill="none" xmlns="http://www.w3.org/2000/svg">
<path d="M421.125 26.75C432.091 14.7268 446.498 6.37722 462.381 2.83896C478.265 -0.6993 494.853 0.745881 509.886 6.97757C524.919 13.2093 537.664 23.9244 546.386 37.6627C555.108 51.4011 559.381 67.4945 558.625 83.75C558.069 94.7965 559.836 105.837 563.81 116.158C567.785 126.48 573.879 135.854 581.7 143.675C589.521 151.496 598.895 157.59 609.216 161.565C619.538 165.539 630.578 167.306 641.625 166.75C657.88 165.993 673.974 170.267 687.712 178.989C701.45 187.711 712.166 200.456 718.397 215.489C724.629 230.521 726.074 247.11 722.536 262.994C718.998 278.877 710.648 293.284 698.625 304.25C690.425 311.657 683.87 320.702 679.383 330.8C674.897 340.898 672.579 351.825 672.579 362.875C672.579 373.925 674.897 384.852 679.383 394.95C683.87 405.048 690.425 414.093 698.625 421.5C710.648 432.466 718.998 446.873 722.536 462.756C726.074 478.64 724.629 495.228 718.397 510.261C712.166 525.294 701.45 538.039 687.712 546.761C673.974 555.483 657.88 559.757 641.625 559C630.578 558.444 619.538 560.211 609.216 564.185C598.895 568.16 589.521 574.254 581.7 582.075C573.879 589.896 567.785 599.27 563.81 609.592C559.836 619.913 558.069 630.953 558.625 642C559.381 658.255 555.108 674.349 546.386 688.087C537.664 701.826 524.919 712.541 509.886 718.772C494.853 725.004 478.265 726.449 462.381 722.911C446.498 719.373 432.091 711.023 421.125 699C413.718 690.8 404.673 684.245 394.575 679.758C384.477 675.272 373.55 672.954 362.5 672.954C351.45 672.954 340.523 675.272 330.425 679.758C320.326 684.245 311.282 690.8 303.875 699C292.909 711.023 278.502 719.373 262.618 722.911C246.735 726.449 230.146 725.004 215.114 718.772C200.081 712.541 187.336 701.826 178.614 688.087C169.892 674.349 165.618 658.255 166.375 642C166.93 630.953 165.164 619.913 161.189 609.592C157.215 599.27 151.121 589.896 143.3 582.075C135.479 574.254 126.105 568.16 115.783 564.185C105.462 560.211 94.4214 558.444 83.3749 559C67.1194 559.757 51.026 555.483 37.2876 546.761C23.5492 538.039 12.8341 525.294 6.60245 510.261C0.370761 495.228 -1.07442 478.64 2.46384 462.756C6.0021 446.873 14.3517 432.466 26.3749 421.5C34.5749 414.093 41.13 405.048 45.6164 394.95C50.1029 384.852 52.421 373.925 52.421 362.875C52.421 351.825 50.1029 340.898 45.6164 330.8C41.13 320.702 34.5749 311.657 26.3749 304.25C14.3517 293.284 6.0021 278.877 2.46384 262.994C-1.07442 247.11 0.370761 230.521 6.60245 215.489C12.8341 200.456 23.5492 187.711 37.2876 178.989C51.026 170.267 67.1194 165.993 83.3749 166.75C94.4111 167.288 105.438 165.508 115.744 161.525C126.051 157.542 135.409 151.445 143.216 143.626C151.024 135.807 157.107 126.44 161.074 116.127C165.041 105.815 166.804 94.7854 166.25 83.75C165.493 67.4945 169.767 51.4011 178.489 37.6627C187.211 23.9244 199.956 13.2093 214.989 6.97757C230.021 0.745881 246.61 -0.6993 262.493 2.83896C278.377 6.37722 292.784 14.7268 303.75 26.75C311.158 34.9705 320.21 41.543 330.319 46.0419C340.429 50.5407 351.372 52.8654 362.437 52.8654C373.503 52.8654 384.445 50.5407 394.555 46.0419C404.665 41.543 413.717 34.9705 421.125 26.75Z" fill="#FF927D"/>
<path d="M362.5 638C514.378 638 637.5 514.878 637.5 363C637.5 211.122 514.378 88 362.5 88C210.622 88 87.5 211.122 87.5 363C87.5 514.878 210.622 638 362.5 638Z" fill="#FFF35F"/>
<path opacity="0.15" d="M362.5 563C296.071 562.986 231.893 538.928 181.825 495.271C131.757 451.613 99.1835 391.308 90.125 325.5C88.425 337.929 87.548 350.456 87.5 363C87.5 435.935 116.473 505.882 168.046 557.454C219.618 609.027 289.565 638 362.5 638C435.435 638 505.382 609.027 556.954 557.454C608.527 505.882 637.5 435.935 637.5 363C637.452 350.456 636.575 337.929 634.875 325.5C625.817 391.308 593.243 451.613 543.175 495.271C493.107 538.928 428.929 562.986 362.5 563Z" fill="#54596E"/>
</svg>
