<svg width="405" height="448" viewBox="0 0 405 448" fill="none" xmlns="http://www.w3.org/2000/svg">
<rect x="133.262" y="313.554" width="119.128" height="133.738" fill="#EFA650"/>
<path fill-rule="evenodd" clip-rule="evenodd" d="M253.199 54.6421C239.309 22.4963 207.319 0 170.074 0C120.086 0 79.5624 40.5232 79.5624 90.5111C79.5624 91.0458 79.5671 91.5794 79.5763 92.1119C41.6844 94.4589 11.6786 125.934 11.6786 164.417C11.6786 174.873 13.894 184.813 17.8809 193.791C6.64828 208.868 -1.14899e-05 227.563 -1.14899e-05 247.81C-1.14899e-05 297.798 40.5232 338.321 90.511 338.321C94.1625 338.321 97.7634 338.105 101.302 337.685C120.851 350.986 144.463 358.76 169.891 358.76C184.169 358.76 197.875 356.309 210.611 351.804C224.061 362.552 241.116 368.978 259.672 368.978C302.49 368.978 337.316 334.763 338.301 292.182C376.234 281.401 404.016 246.5 404.016 205.11C404.016 163.182 375.506 127.912 336.815 117.629C329.656 81.5653 297.839 54.3795 259.672 54.3795C257.493 54.3795 255.334 54.4682 253.199 54.6421Z" fill="#0CA46D"/>
</svg>
