<svg width="124" height="124" viewBox="0 0 124 124" fill="none" xmlns="http://www.w3.org/2000/svg">
<rect x="4" y="4" width="116" height="116" rx="8" fill="#F5F0ED"/>
<g filter="url(#filter0_d_380_922)">
<path d="M63.192 92.528C59.496 92.528 56.1813 92.088 53.248 91.208C50.3147 90.328 47.792 88.7147 45.68 86.368C43.568 84.0213 41.9547 80.648 40.84 76.248C39.7253 71.848 39.168 66.128 39.168 59.088C39.168 52.2827 39.7547 46.7093 40.928 42.368C42.1013 38.0267 43.744 34.6827 45.856 32.336C48.0267 29.9307 50.5787 28.288 53.512 27.408C56.4453 26.4693 59.672 26 63.192 26C66.8293 26 70.0267 26.2053 72.784 26.616C75.6 26.968 77.976 27.408 79.912 27.936C81.9067 28.464 83.4907 28.992 84.664 29.52V42.808C83.5493 42.5733 82.112 42.3387 80.352 42.104C78.592 41.8693 76.568 41.6933 74.28 41.576C72.0507 41.4 69.616 41.312 66.976 41.312C64.9813 41.312 63.28 41.5173 61.872 41.928C60.5227 42.3387 59.4373 43.16 58.616 44.392C57.7947 45.624 57.1787 47.4427 56.768 49.848C56.416 52.1947 56.24 55.3333 56.24 59.264C56.24 62.784 56.3867 65.7173 56.68 68.064C56.9733 70.4107 57.5013 72.2587 58.264 73.608C59.0267 74.8987 60.112 75.8373 61.52 76.424C62.9867 76.952 64.864 77.216 67.152 77.216C71.6107 77.216 75.2187 77.1573 77.976 77.04C80.792 76.864 83.0213 76.6587 84.664 76.424V89.712C83.1973 90.2987 81.4667 90.7973 79.472 91.208C77.536 91.6187 75.248 91.9413 72.608 92.176C69.968 92.4107 66.8293 92.528 63.192 92.528Z" fill="#A5243D"/>
</g>
<rect x="55" y="32" width="3.05882" height="4.58824" rx="1.52941" fill="black"/>
<rect x="77.9412" y="32" width="3.05882" height="4.58824" rx="1.52941" fill="black"/>
<path d="M64.1765 35.0588C65.0631 37.098 69.4962 37.098 70.2942 35.0588" stroke="black" stroke-width="2" stroke-linecap="round"/>
<rect x="4" y="4" width="116" height="116" rx="8" stroke="#A5243D" stroke-width="8"/>
<defs>
<filter id="filter0_d_380_922" x="39.168" y="26" width="48.4961" height="67.528" filterUnits="userSpaceOnUse" color-interpolation-filters="sRGB">
<feFlood flood-opacity="0" result="BackgroundImageFix"/>
<feColorMatrix in="SourceAlpha" type="matrix" values="0 0 0 0 0 0 0 0 0 0 0 0 0 0 0 0 0 0 127 0" result="hardAlpha"/>
<feOffset dx="3" dy="1"/>
<feComposite in2="hardAlpha" operator="out"/>
<feColorMatrix type="matrix" values="0 0 0 0 0.445833 0 0 0 0 0.200374 0 0 0 0 0 0 0 0 1 0"/>
<feBlend mode="normal" in2="BackgroundImageFix" result="effect1_dropShadow_380_922"/>
<feBlend mode="normal" in="SourceGraphic" in2="effect1_dropShadow_380_922" result="shape"/>
</filter>
</defs>
</svg>
