<svg width="124" height="124" viewBox="0 0 124 124" fill="none" xmlns="http://www.w3.org/2000/svg">
<rect x="4" y="4" width="116" height="116" rx="8" fill="#F5F0ED"/>
<g filter="url(#filter0_d_380_1077)">
<path d="M40.84 91V41.808C40.84 38.64 41.3387 36 42.336 33.888C43.3333 31.776 44.624 30.1333 46.208 28.96C47.792 27.728 49.552 26.8773 51.488 26.408C53.424 25.88 55.3013 25.616 57.12 25.616C58.9387 25.616 61.4613 25.6453 64.688 25.704C67.9147 25.704 71.4053 25.8213 75.16 26.056C78.9733 26.232 82.5813 26.5547 85.984 27.024V41.368H62.048C60.5813 41.368 59.5253 41.7787 58.88 42.6C58.2347 43.3627 57.912 44.184 57.912 45.064V52.456L81.584 53.336V66.888L57.912 67.768V91H40.84Z" fill="#B22222"/>
</g>
<rect x="54" y="31" width="3.05882" height="4.58824" rx="1.52941" fill="black"/>
<rect x="76.9412" y="31" width="3.05882" height="4.58824" rx="1.52941" fill="black"/>
<path d="M63.1765 34.0588C64.0631 36.098 68.4962 36.098 69.2942 34.0588" stroke="black" stroke-width="2" stroke-linecap="round"/>
<rect x="4" y="4" width="116" height="116" rx="8" stroke="#B22222" stroke-width="8"/>
<defs>
<filter id="filter0_d_380_1077" x="40.84" y="25.616" width="48.144" height="66.384" filterUnits="userSpaceOnUse" color-interpolation-filters="sRGB">
<feFlood flood-opacity="0" result="BackgroundImageFix"/>
<feColorMatrix in="SourceAlpha" type="matrix" values="0 0 0 0 0 0 0 0 0 0 0 0 0 0 0 0 0 0 127 0" result="hardAlpha"/>
<feOffset dx="3" dy="1"/>
<feComposite in2="hardAlpha" operator="out"/>
<feColorMatrix type="matrix" values="0 0 0 0 0.445833 0 0 0 0 0.200374 0 0 0 0 0 0 0 0 1 0"/>
<feBlend mode="normal" in2="BackgroundImageFix" result="effect1_dropShadow_380_1077"/>
<feBlend mode="normal" in="SourceGraphic" in2="effect1_dropShadow_380_1077" result="shape"/>
</filter>
</defs>
</svg>
