<svg width="124" height="124" viewBox="0 0 124 124" fill="none" xmlns="http://www.w3.org/2000/svg">
<rect x="4" y="4" width="116" height="116" rx="8" fill="#F5F0ED"/>
<g filter="url(#filter0_d_380_1139)">
<path d="M54.792 91.44C50.744 91.44 47.4293 90.5893 44.848 88.888C42.3253 87.128 40.36 84.752 38.952 81.76C37.544 78.7093 36.5467 75.1893 35.96 71.2C35.432 67.2107 35.168 62.9573 35.168 58.44C35.168 53.3947 35.4907 48.8187 36.136 44.712C36.84 40.6053 38.072 37.0853 39.832 34.152C41.6507 31.2187 44.232 28.96 47.576 27.376C50.92 25.792 55.2613 25 60.6 25C64.0613 25 67.024 25.1467 69.488 25.44C72.0107 25.6747 74.3573 26.056 76.528 26.584C78.6987 27.0533 80.9573 27.6107 83.304 28.256V41.544C82.0133 41.3093 80.3707 41.104 78.376 40.928C76.3813 40.752 74.152 40.6053 71.688 40.488C69.224 40.3707 66.6133 40.312 63.856 40.312C60.4533 40.312 57.9307 40.84 56.288 41.896C54.6453 42.8933 53.56 44.712 53.032 47.352C52.504 49.992 52.24 53.688 52.24 58.44C52.24 62.0773 52.3867 65.04 52.68 67.328C52.9733 69.5573 53.4427 71.288 54.088 72.52C54.792 73.752 55.672 74.6027 56.728 75.072C57.784 75.5413 59.0453 75.776 60.512 75.776C62.6827 75.776 64.6187 75.688 66.32 75.512C68.0213 75.2773 69.312 75.072 70.192 74.896V66.448H61.128V52.896C62.4187 52.72 63.944 52.5733 65.704 52.456C67.5227 52.3387 69.3707 52.2507 71.248 52.192C73.184 52.0747 74.944 52.016 76.528 52.016C78.64 52.016 80.488 52.0453 82.072 52.104C83.7147 52.104 85.2107 52.1333 86.56 52.192V91H73.712L71.424 86.688C70.016 87.6267 67.816 88.6533 64.824 89.768C61.832 90.8827 58.488 91.44 54.792 91.44Z" fill="#E49B0F"/>
</g>
<rect x="51" y="30" width="3.05882" height="4.58824" rx="1.52941" fill="black"/>
<rect x="73.9412" y="30" width="3.05882" height="4.58824" rx="1.52941" fill="black"/>
<path d="M60.1765 33.0588C61.0631 35.098 65.4962 35.098 66.2942 33.0588" stroke="black" stroke-width="2" stroke-linecap="round"/>
<rect x="4" y="4" width="116" height="116" rx="8" stroke="#E49B0F" stroke-width="8"/>
<defs>
<filter id="filter0_d_380_1139" x="35.168" y="25" width="54.3921" height="67.44" filterUnits="userSpaceOnUse" color-interpolation-filters="sRGB">
<feFlood flood-opacity="0" result="BackgroundImageFix"/>
<feColorMatrix in="SourceAlpha" type="matrix" values="0 0 0 0 0 0 0 0 0 0 0 0 0 0 0 0 0 0 127 0" result="hardAlpha"/>
<feOffset dx="3" dy="1"/>
<feComposite in2="hardAlpha" operator="out"/>
<feColorMatrix type="matrix" values="0 0 0 0 0.445833 0 0 0 0 0.200374 0 0 0 0 0 0 0 0 1 0"/>
<feBlend mode="normal" in2="BackgroundImageFix" result="effect1_dropShadow_380_1139"/>
<feBlend mode="normal" in="SourceGraphic" in2="effect1_dropShadow_380_1139" result="shape"/>
</filter>
</defs>
</svg>
