<svg width="124" height="124" viewBox="0 0 124 124" fill="none" xmlns="http://www.w3.org/2000/svg">
<rect x="4" y="4" width="116" height="116" rx="8" fill="#F5F0ED"/>
<g filter="url(#filter0_d_380_798)">
<path d="M59.824 91C55.8933 91 52.6667 90.4133 50.144 89.24C47.6213 88.0667 45.7733 86.2187 44.6 83.696C43.4267 81.1733 42.84 77.9467 42.84 74.016V25.616H59.912V71.112C59.912 72.1093 60.0587 72.96 60.352 73.664C60.704 74.368 61.232 74.896 61.936 75.248C62.64 75.5413 63.4907 75.688 64.488 75.688H83.496V91H59.824Z" fill="#B57EDC"/>
</g>
<rect x="50" y="79" width="3.72549" height="5.58824" rx="1.86274" fill="black"/>
<rect x="77.9412" y="79" width="3.72549" height="5.58824" rx="1.86274" fill="black"/>
<path d="M61.1765 82.7255C62.2564 85.2092 67.6556 85.2092 68.6275 82.7255" stroke="black" stroke-width="2" stroke-linecap="round"/>
<rect x="4" y="4" width="116" height="116" rx="8" stroke="#B57EDC" stroke-width="8"/>
<defs>
<filter id="filter0_d_380_798" x="42.84" y="25.616" width="43.656" height="66.384" filterUnits="userSpaceOnUse" color-interpolation-filters="sRGB">
<feFlood flood-opacity="0" result="BackgroundImageFix"/>
<feColorMatrix in="SourceAlpha" type="matrix" values="0 0 0 0 0 0 0 0 0 0 0 0 0 0 0 0 0 0 127 0" result="hardAlpha"/>
<feOffset dx="3" dy="1"/>
<feComposite in2="hardAlpha" operator="out"/>
<feColorMatrix type="matrix" values="0 0 0 0 0.445833 0 0 0 0 0.200374 0 0 0 0 0 0 0 0 1 0"/>
<feBlend mode="normal" in2="BackgroundImageFix" result="effect1_dropShadow_380_798"/>
<feBlend mode="normal" in="SourceGraphic" in2="effect1_dropShadow_380_798" result="shape"/>
</filter>
</defs>
</svg>
