<svg width="124" height="124" viewBox="0 0 124 124" fill="none" xmlns="http://www.w3.org/2000/svg">
<rect x="4" y="4" width="116" height="116" rx="8" fill="#F5F0ED"/>
<g filter="url(#filter0_d_380_519)">
<path d="M61.152 91.528C56.5173 91.528 52.44 91.088 48.92 90.208C45.4587 89.2693 42.5547 87.6267 40.208 85.28C37.8613 82.9333 36.1013 79.5893 34.928 75.248C33.7547 70.848 33.168 65.1867 33.168 58.264C33.168 51.3413 33.7547 45.7093 34.928 41.368C36.1013 36.968 37.8613 33.5947 40.208 31.248C42.5547 28.9013 45.4587 27.288 48.92 26.408C52.44 25.4693 56.5173 25 61.152 25C65.7867 25 69.8347 25.4693 73.296 26.408C76.816 27.288 79.7493 28.9013 82.096 31.248C84.4427 33.5947 86.2027 36.968 87.376 41.368C88.5493 45.7093 89.136 51.3413 89.136 58.264C89.136 65.1867 88.5493 70.848 87.376 75.248C86.2027 79.5893 84.4427 82.9333 82.096 85.28C79.7493 87.6267 76.816 89.2693 73.296 90.208C69.8347 91.088 65.7867 91.528 61.152 91.528ZM61.152 76.216C63.3813 76.216 65.2 75.952 66.608 75.424C68.016 74.896 69.1013 73.9867 69.864 72.696C70.6853 71.4053 71.2427 69.5867 71.536 67.24C71.888 64.8933 72.064 61.9013 72.064 58.264C72.064 54.4507 71.888 51.3707 71.536 49.024C71.2427 46.6773 70.6853 44.888 69.864 43.656C69.1013 42.3653 68.016 41.4853 66.608 41.016C65.2 40.5467 63.3813 40.312 61.152 40.312C58.9813 40.312 57.1627 40.5467 55.696 41.016C54.288 41.4853 53.1733 42.3653 52.352 43.656C51.5893 44.888 51.032 46.6773 50.68 49.024C50.3867 51.3707 50.24 54.4507 50.24 58.264C50.24 61.9013 50.3867 64.8933 50.68 67.24C51.032 69.5867 51.5893 71.4053 52.352 72.696C53.1733 73.9867 54.288 74.896 55.696 75.424C57.1627 75.952 58.9813 76.216 61.152 76.216Z" fill="#FF7F00"/>
</g>
<rect x="49" y="32" width="3.05882" height="4.58824" rx="1.52941" fill="black"/>
<rect x="71.9412" y="32" width="3.05882" height="4.58824" rx="1.52941" fill="black"/>
<path d="M58.1765 35.0588C59.0631 37.098 63.4961 37.098 64.2941 35.0588" stroke="black" stroke-width="2" stroke-linecap="round"/>
<rect x="4" y="4" width="116" height="116" rx="8" stroke="#FF7F00" stroke-width="8"/>
<defs>
<filter id="filter0_d_380_519" x="33.168" y="25" width="58.968" height="67.528" filterUnits="userSpaceOnUse" color-interpolation-filters="sRGB">
<feFlood flood-opacity="0" result="BackgroundImageFix"/>
<feColorMatrix in="SourceAlpha" type="matrix" values="0 0 0 0 0 0 0 0 0 0 0 0 0 0 0 0 0 0 127 0" result="hardAlpha"/>
<feOffset dx="3" dy="1"/>
<feComposite in2="hardAlpha" operator="out"/>
<feColorMatrix type="matrix" values="0 0 0 0 0.445833 0 0 0 0 0.200374 0 0 0 0 0 0 0 0 1 0"/>
<feBlend mode="normal" in2="BackgroundImageFix" result="effect1_dropShadow_380_519"/>
<feBlend mode="normal" in="SourceGraphic" in2="effect1_dropShadow_380_519" result="shape"/>
</filter>
</defs>
</svg>
