<svg width="124" height="124" viewBox="0 0 124 124" fill="none" xmlns="http://www.w3.org/2000/svg">
<rect x="4" y="4" width="116" height="116" rx="8" fill="#F5F0ED"/>
<g filter="url(#filter0_d_380_829)">
<path d="M37.84 91V25.616H65.736C68.6107 25.616 71.2507 25.968 73.656 26.672C76.0613 27.376 78.144 28.5787 79.904 30.28C81.664 31.9227 83.0133 34.152 83.952 36.968C84.9493 39.784 85.448 43.3333 85.448 47.616C85.448 50.3147 85.2133 52.6613 84.744 54.656C84.2747 56.6507 83.6293 58.352 82.808 59.76C82.0453 61.1093 81.1067 62.2533 79.992 63.192C78.936 64.1307 77.792 64.952 76.56 65.656L87.912 91H70.576L61.424 68.472C60.896 68.472 60.3387 68.472 59.752 68.472C59.224 68.472 58.696 68.472 58.168 68.472C57.64 68.472 57.0827 68.472 56.496 68.472C55.968 68.472 55.44 68.472 54.912 68.472V91H37.84ZM54.912 54.92H62.656C63.5947 54.92 64.416 54.8027 65.12 54.568C65.824 54.2747 66.4107 53.8347 66.88 53.248C67.408 52.6613 67.7893 51.928 68.024 51.048C68.2587 50.1093 68.376 48.9947 68.376 47.704C68.376 46.4133 68.2587 45.328 68.024 44.448C67.7893 43.568 67.408 42.8933 66.88 42.424C66.4107 41.896 65.824 41.5147 65.12 41.28C64.416 41.0453 63.5947 40.928 62.656 40.928H54.912V54.92Z" fill="#FF0000"/>
</g>
<rect x="48" y="32" width="3.05882" height="4.58824" rx="1.52941" fill="black"/>
<rect x="70.9412" y="32" width="3.05882" height="4.58824" rx="1.52941" fill="black"/>
<path d="M57.1765 35.0588C58.0631 37.0981 62.4962 37.0981 63.2942 35.0588" stroke="black" stroke-width="2" stroke-linecap="round"/>
<rect x="4" y="4" width="116" height="116" rx="8" stroke="#FF0000" stroke-width="8"/>
<defs>
<filter id="filter0_d_380_829" x="37.84" y="25.616" width="53.072" height="66.384" filterUnits="userSpaceOnUse" color-interpolation-filters="sRGB">
<feFlood flood-opacity="0" result="BackgroundImageFix"/>
<feColorMatrix in="SourceAlpha" type="matrix" values="0 0 0 0 0 0 0 0 0 0 0 0 0 0 0 0 0 0 127 0" result="hardAlpha"/>
<feOffset dx="3" dy="1"/>
<feComposite in2="hardAlpha" operator="out"/>
<feColorMatrix type="matrix" values="0 0 0 0 0.445833 0 0 0 0 0.200374 0 0 0 0 0 0 0 0 1 0"/>
<feBlend mode="normal" in2="BackgroundImageFix" result="effect1_dropShadow_380_829"/>
<feBlend mode="normal" in="SourceGraphic" in2="effect1_dropShadow_380_829" result="shape"/>
</filter>
</defs>
</svg>
