<svg width="124" height="124" viewBox="0 0 124 124" fill="none" xmlns="http://www.w3.org/2000/svg">
<rect x="4" y="4" width="116" height="116" rx="8" fill="#F5F0ED"/>
<g filter="url(#filter0_d_380_1015)">
<path d="M60.344 91.528C58.408 91.528 56.5013 91.4693 54.624 91.352C52.8053 91.2347 50.9867 91.0587 49.168 90.824C47.408 90.5893 45.7067 90.3253 44.064 90.032C42.4213 89.7387 40.8373 89.3867 39.312 88.976V75.424C41.3067 75.6 43.448 75.7467 45.736 75.864C48.0827 75.9813 50.4293 76.0693 52.776 76.128C55.1813 76.1867 57.4107 76.216 59.464 76.216C61.4 76.216 63.0133 76.0693 64.304 75.776C65.5947 75.4827 66.5627 75.0133 67.208 74.368C67.8533 73.7227 68.176 72.8427 68.176 71.728V70.672C68.176 69.3813 67.7067 68.4133 66.768 67.768C65.888 67.1227 64.832 66.8 63.6 66.8H58.936C52.1307 66.8 46.968 65.304 43.448 62.312C39.928 59.32 38.168 54.304 38.168 47.264V44.36C38.168 37.9067 40.104 33.096 43.976 29.928C47.848 26.7013 53.4213 25.088 60.696 25.088C63.4533 25.088 66.0347 25.2347 68.44 25.528C70.904 25.7627 73.192 26.0853 75.304 26.496C77.4747 26.848 79.4107 27.2293 81.112 27.64V41.192C78.4133 40.9573 75.3627 40.7813 71.96 40.664C68.616 40.488 65.5653 40.4 62.808 40.4C61.1653 40.4 59.6987 40.5173 58.408 40.752C57.1173 40.9867 56.12 41.456 55.416 42.16C54.712 42.864 54.36 43.8907 54.36 45.24V46.12C54.36 47.5867 54.8293 48.7013 55.768 49.464C56.7067 50.2267 58.144 50.608 60.08 50.608H65.888C69.9947 50.608 73.3973 51.4 76.096 52.984C78.8533 54.5093 80.9067 56.6213 82.256 59.32C83.664 61.96 84.368 64.9813 84.368 68.384V71.288C84.368 76.8613 83.4 81.1147 81.464 84.048C79.528 86.9813 76.7707 88.976 73.192 90.032C69.6133 91.0293 65.3307 91.528 60.344 91.528Z" fill="#FF8C69"/>
</g>
<rect x="49" y="31" width="3.05882" height="4.58824" rx="1.52941" fill="black"/>
<rect x="71.9412" y="31" width="3.05882" height="4.58824" rx="1.52941" fill="black"/>
<path d="M58.1765 34.0588C59.0631 36.0981 63.4962 36.0981 64.2942 34.0588" stroke="black" stroke-width="2" stroke-linecap="round"/>
<rect x="4" y="4" width="116" height="116" rx="8" stroke="#FF8C69" stroke-width="8"/>
<defs>
<filter id="filter0_d_380_1015" x="38.168" y="25.088" width="49.2001" height="67.44" filterUnits="userSpaceOnUse" color-interpolation-filters="sRGB">
<feFlood flood-opacity="0" result="BackgroundImageFix"/>
<feColorMatrix in="SourceAlpha" type="matrix" values="0 0 0 0 0 0 0 0 0 0 0 0 0 0 0 0 0 0 127 0" result="hardAlpha"/>
<feOffset dx="3" dy="1"/>
<feComposite in2="hardAlpha" operator="out"/>
<feColorMatrix type="matrix" values="0 0 0 0 0.445833 0 0 0 0 0.200374 0 0 0 0 0 0 0 0 1 0"/>
<feBlend mode="normal" in2="BackgroundImageFix" result="effect1_dropShadow_380_1015"/>
<feBlend mode="normal" in="SourceGraphic" in2="effect1_dropShadow_380_1015" result="shape"/>
</filter>
</defs>
</svg>
