<svg width="124" height="124" viewBox="0 0 124 124" fill="none" xmlns="http://www.w3.org/2000/svg">
<rect x="4" y="4" width="116" height="116" rx="8" fill="#F5F0ED"/>
<g filter="url(#filter0_d_380_705)">
<path d="M72.008 92L31.44 26.616H50.272L90.84 92H72.008ZM31.704 92L53.968 55.304L62.768 69.648L50.536 92H31.704ZM68.488 64.016L59.776 49.936L72.448 26.616H91.28L68.488 64.016Z" fill="#8884FF"/>
</g>
<rect x="49" y="46" width="3.05882" height="4.58824" rx="1.52941" fill="black"/>
<rect x="71.9412" y="46" width="3.05882" height="4.58824" rx="1.52941" fill="black"/>
<path d="M58.1765 49.0588C59.0631 51.0981 63.4962 51.0981 64.2942 49.0588" stroke="black" stroke-width="2" stroke-linecap="round"/>
<rect x="4" y="4" width="116" height="116" rx="8" stroke="#8884FF" stroke-width="8"/>
<defs>
<filter id="filter0_d_380_705" x="31.4399" y="26.616" width="62.8401" height="66.384" filterUnits="userSpaceOnUse" color-interpolation-filters="sRGB">
<feFlood flood-opacity="0" result="BackgroundImageFix"/>
<feColorMatrix in="SourceAlpha" type="matrix" values="0 0 0 0 0 0 0 0 0 0 0 0 0 0 0 0 0 0 127 0" result="hardAlpha"/>
<feOffset dx="3" dy="1"/>
<feComposite in2="hardAlpha" operator="out"/>
<feColorMatrix type="matrix" values="0 0 0 0 0.445833 0 0 0 0 0.200374 0 0 0 0 0 0 0 0 1 0"/>
<feBlend mode="normal" in2="BackgroundImageFix" result="effect1_dropShadow_380_705"/>
<feBlend mode="normal" in="SourceGraphic" in2="effect1_dropShadow_380_705" result="shape"/>
</filter>
</defs>
</svg>
