<svg width="132" height="147" viewBox="0 0 132 147" fill="none" xmlns="http://www.w3.org/2000/svg">
<path fill-rule="evenodd" clip-rule="evenodd" d="M95.7297 38.1528C103.566 29.9297 113.105 22.6752 120.472 25.7011C132.843 30.7819 126.526 63.5425 123.839 75.2168C124.811 79.0565 125.325 82.9331 125.325 86.7499C125.325 113.2 100.626 138.041 70.158 138.041C39.6902 138.041 14.9911 113.2 14.9911 86.7499C14.9911 83.2545 15.4225 79.7088 16.2415 76.1873C13.7144 65.486 6.64861 30.9308 19.3818 25.7011C26.8013 22.6538 36.4227 30.0329 44.2905 38.3276C52.0055 33.737 60.8102 30.9768 70.158 30.9768C79.3865 30.9768 88.0857 33.6671 95.7297 38.1528Z" fill="#807D8A"/>
<path fill-rule="evenodd" clip-rule="evenodd" d="M74.311 137.338C74.7024 137.663 75.2108 137.814 75.717 137.763C98.9524 135.438 117.939 118.77 123.6 98.8996C123.669 98.6563 123.69 98.4004 123.66 98.1492C121.395 78.8313 108.083 64 92 64C84.4571 64 77.5238 67.2622 72.0537 72.7194C71.2012 73.5699 69.7987 73.5699 68.9462 72.7194C63.4761 67.2622 56.5428 64 49 64C32.4331 64 18.8066 79.7369 17.1657 99.9043C17.1449 100.159 17.1749 100.416 17.2544 100.659C23.5652 119.925 42.4018 135.802 65.2348 137.823C65.7322 137.867 66.2298 137.718 66.6149 137.4C67.4181 136.736 68.196 136.029 68.9464 135.28C69.7989 134.43 71.201 134.43 72.0535 135.28C72.7808 136.006 73.534 136.693 74.311 137.338Z" fill="#FAFAFA"/>
<path fill-rule="evenodd" clip-rule="evenodd" d="M43.3602 131.203C30.2648 124.095 20.448 112.15 16.678 98.7658C20.3028 95.7878 24.9426 94 30 94C41.598 94 51 103.402 51 115C51 121.523 48.0261 127.351 43.3602 131.203Z" fill="#FFD9D9"/>
<path fill-rule="evenodd" clip-rule="evenodd" d="M123.761 98.3206C120.123 111.743 110.402 123.762 97.3697 130.976C92.8594 127.124 90 121.396 90 115C90 103.402 99.402 94 111 94C115.8 94 120.224 95.6105 123.761 98.3206Z" fill="#FFD9D9"/>
<path d="M19.8177 61.9406C18.4302 55.1087 15.347 36.7097 21.5 33C27.8593 29.166 39.2696 39.8312 42.8015 43.3894C43.3566 43.9486 43.2032 44.866 42.518 45.2548C34.1013 50.0313 27.4505 55.4956 21.9612 62.4137C21.3188 63.2233 20.0234 62.9534 19.8177 61.9406Z" fill="#DCDDDD"/>
<path d="M120.376 61.8396C121.585 54.9292 124.123 36.6915 118 33C111.639 29.1649 100.748 39.8372 97.3894 43.3924C96.8571 43.9557 97.0188 44.8526 97.693 45.2349C106.097 49.9992 112.741 55.4475 118.227 62.3406C118.88 63.1611 120.195 62.8725 120.376 61.8396Z" fill="#DCDDDD"/>
<circle cx="49.1412" cy="86.1873" r="7" fill="#323232"/>
<circle cx="51.7662" cy="84.4373" r="1.75" fill="white"/>
<circle cx="7" cy="7" r="7" transform="matrix(-1 0 0 1 98.1412 79.1873)" fill="#323232"/>
<circle cx="1.75" cy="1.75" r="1.75" transform="matrix(-1 0 0 1 90.2662 82.6873)" fill="white"/>
<path d="M76.9206 98.1964C76.9206 99.999 74.0577 101.46 70.5261 101.46C66.9944 101.46 64.1315 99.999 64.1315 98.1964C64.1315 96.3938 66.9944 94 70.5261 94C74.0577 94 76.9206 96.3938 76.9206 98.1964Z" fill="#323232"/>
<circle cx="67.3288" cy="97.1974" r="1.06576" fill="white"/>
<path d="M70.5261 97.0105V103.405C70.5261 105.759 68.6175 107.668 66.2631 107.668H64.6644C63.1929 107.668 62 106.475 62 105.004V105.004" stroke="#323232" stroke-width="1.91837" stroke-linecap="round" stroke-linejoin="round"/>
<path d="M70.5261 97.0105V103.405C70.5261 105.759 72.4348 107.668 74.7892 107.668H76.3878C77.8593 107.668 79.0522 106.475 79.0522 105.004V105.004" stroke="#323232" stroke-width="1.91837" stroke-linecap="round" stroke-linejoin="round"/>
<rect x="39.1412" y="130.541" width="63" height="8" rx="3" fill="#ED653B"/>
<circle cx="70.1412" cy="138.541" r="8" fill="#FFCE05"/>
<path d="M67.0057 141.571C66.5297 141.571 66.1157 141.485 65.7637 141.313C65.4117 141.137 65.1417 140.889 64.9537 140.569C64.7657 140.249 64.6717 139.877 64.6717 139.453C64.6717 138.865 64.7817 138.343 65.0017 137.887C65.2257 137.431 65.5277 137.079 65.9077 136.831C66.2877 136.579 66.7097 136.453 67.1737 136.453C67.6057 136.453 67.9337 136.565 68.1577 136.789C68.3817 137.009 68.4937 137.301 68.4937 137.665C68.4937 137.909 68.4497 138.105 68.3617 138.253C68.2777 138.401 68.1557 138.475 67.9957 138.475C67.8837 138.475 67.7957 138.449 67.7317 138.397C67.6677 138.345 67.6357 138.269 67.6357 138.169C67.6357 138.133 67.6437 138.067 67.6597 137.971C67.6837 137.851 67.6957 137.755 67.6957 137.683C67.6957 137.319 67.5017 137.137 67.1137 137.137C66.8497 137.137 66.5977 137.223 66.3577 137.395C66.1177 137.567 65.9237 137.821 65.7757 138.157C65.6277 138.489 65.5537 138.885 65.5537 139.345C65.5537 139.825 65.6877 140.197 65.9557 140.461C66.2237 140.721 66.6197 140.851 67.1437 140.851C67.4037 140.851 67.6657 140.819 67.9297 140.755C68.1977 140.687 68.4937 140.585 68.8177 140.449C68.8777 140.425 68.9277 140.413 68.9677 140.413C69.0317 140.413 69.0797 140.437 69.1117 140.485C69.1437 140.533 69.1597 140.595 69.1597 140.671C69.1597 140.915 69.0277 141.095 68.7637 141.211C68.4797 141.335 68.1837 141.427 67.8757 141.487C67.5717 141.543 67.2817 141.571 67.0057 141.571ZM69.301 141.571C69.121 141.571 68.973 141.489 68.857 141.325C68.745 141.157 68.689 140.949 68.689 140.701C68.689 140.401 68.709 140.127 68.749 139.879C68.789 139.627 68.855 139.361 68.947 139.081C68.987 138.961 69.043 138.875 69.115 138.823C69.187 138.771 69.301 138.745 69.457 138.745C69.545 138.745 69.605 138.759 69.637 138.787C69.673 138.815 69.691 138.857 69.691 138.913C69.691 138.945 69.669 139.053 69.625 139.237C69.585 139.385 69.553 139.519 69.529 139.639C69.449 140.059 69.409 140.339 69.409 140.479C69.409 140.563 69.419 140.623 69.439 140.659C69.459 140.691 69.491 140.707 69.535 140.707C69.595 140.707 69.669 140.647 69.757 140.527C69.849 140.407 69.945 140.225 70.045 139.981C70.149 139.737 70.249 139.437 70.345 139.081C70.377 138.961 70.425 138.875 70.489 138.823C70.557 138.771 70.657 138.745 70.789 138.745C70.881 138.745 70.945 138.757 70.981 138.781C71.017 138.801 71.035 138.841 71.035 138.901C71.035 139.001 70.985 139.275 70.885 139.723C70.773 140.235 70.717 140.551 70.717 140.671C70.717 140.747 70.733 140.807 70.765 140.851C70.797 140.891 70.839 140.911 70.891 140.911C70.971 140.911 71.065 140.863 71.173 140.767C71.285 140.667 71.433 140.507 71.617 140.287C71.665 140.231 71.719 140.203 71.779 140.203C71.831 140.203 71.871 140.227 71.899 140.275C71.931 140.323 71.947 140.389 71.947 140.473C71.947 140.633 71.909 140.757 71.833 140.845C71.661 141.057 71.475 141.231 71.275 141.367C71.079 141.503 70.855 141.571 70.603 141.571C70.411 141.571 70.269 141.497 70.177 141.349C70.089 141.201 70.045 140.993 70.045 140.725C69.977 140.997 69.875 141.207 69.739 141.355C69.603 141.499 69.457 141.571 69.301 141.571ZM74.1365 140.203C74.1885 140.203 74.2285 140.227 74.2565 140.275C74.2885 140.323 74.3045 140.389 74.3045 140.473C74.3045 140.633 74.2665 140.757 74.1905 140.845C74.0185 141.057 73.8305 141.231 73.6265 141.367C73.4225 141.503 73.1885 141.571 72.9245 141.571C72.1085 141.571 71.7005 140.997 71.7005 139.849C71.7005 139.673 71.7065 139.495 71.7185 139.315H71.4845C71.3645 139.315 71.2825 139.293 71.2385 139.249C71.1985 139.205 71.1785 139.135 71.1785 139.039C71.1785 138.815 71.2685 138.703 71.4485 138.703H71.7905C71.8585 138.263 71.9625 137.861 72.1025 137.497C72.2425 137.133 72.4105 136.843 72.6065 136.627C72.8065 136.411 73.0205 136.303 73.2485 136.303C73.4165 136.303 73.5485 136.377 73.6445 136.525C73.7405 136.673 73.7885 136.859 73.7885 137.083C73.7885 137.703 73.5285 138.243 73.0085 138.703H73.6805C73.7445 138.703 73.7905 138.717 73.8185 138.745C73.8465 138.773 73.8605 138.825 73.8605 138.901C73.8605 139.177 73.6345 139.315 73.1825 139.315H72.4505C72.4425 139.515 72.4385 139.671 72.4385 139.783C72.4385 140.199 72.4865 140.491 72.5825 140.659C72.6825 140.827 72.8385 140.911 73.0505 140.911C73.2225 140.911 73.3745 140.859 73.5065 140.755C73.6385 140.651 73.7945 140.495 73.9745 140.287C74.0225 140.231 74.0765 140.203 74.1365 140.203ZM73.0865 136.879C73.0265 136.879 72.9585 136.955 72.8825 137.107C72.8105 137.255 72.7405 137.463 72.6725 137.731C72.6085 137.995 72.5545 138.289 72.5105 138.613C72.7465 138.409 72.9225 138.181 73.0385 137.929C73.1585 137.673 73.2185 137.441 73.2185 137.233C73.2185 136.997 73.1745 136.879 73.0865 136.879ZM75.964 140.383C76.016 140.383 76.056 140.407 76.084 140.455C76.116 140.503 76.132 140.569 76.132 140.653C76.132 140.797 76.098 140.921 76.03 141.025C75.918 141.197 75.77 141.331 75.586 141.427C75.406 141.523 75.19 141.571 74.938 141.571C74.554 141.571 74.256 141.457 74.044 141.229C73.832 140.997 73.726 140.685 73.726 140.293C73.726 140.017 73.784 139.761 73.9 139.525C74.016 139.285 74.176 139.095 74.38 138.955C74.588 138.815 74.822 138.745 75.082 138.745C75.314 138.745 75.5 138.815 75.64 138.955C75.78 139.091 75.85 139.277 75.85 139.513C75.85 139.789 75.75 140.027 75.55 140.227C75.354 140.423 75.018 140.579 74.542 140.695C74.638 140.879 74.8 140.971 75.028 140.971C75.192 140.971 75.326 140.933 75.43 140.857C75.538 140.781 75.662 140.653 75.802 140.473C75.85 140.413 75.904 140.383 75.964 140.383ZM74.98 139.333C74.832 139.333 74.706 139.419 74.602 139.591C74.502 139.763 74.452 139.971 74.452 140.215V140.227C74.688 140.171 74.874 140.087 75.01 139.975C75.146 139.863 75.214 139.733 75.214 139.585C75.214 139.509 75.192 139.449 75.148 139.405C75.108 139.357 75.052 139.333 74.98 139.333Z" fill="#AC8F17" fill-opacity="0.8"/>
<path d="M60.4643 83.7857C60.4643 96.1805 49.9475 106.321 36.8571 106.321C23.7668 106.321 13.25 96.1805 13.25 83.7857C13.25 71.3909 23.7668 61.25 36.8571 61.25C49.9475 61.25 60.4643 71.3909 60.4643 83.7857Z" stroke="#323232" stroke-width="2.5"/>
<path d="M126.75 83.7857C126.75 96.1805 116.233 106.321 103.143 106.321C90.0526 106.321 79.5358 96.1805 79.5358 83.7857C79.5358 71.3909 90.0526 61.25 103.143 61.25C116.233 61.25 126.75 71.3909 126.75 83.7857Z" stroke="#323232" stroke-width="2.5"/>
<path d="M60.6095 82.0382C67.6834 80.8335 71.8348 80.8552 79.3904 82.0382V86.4285C72.1753 85.3306 68.0612 85.3151 60.6095 86.4285V82.0382Z" fill="#242424"/>
</svg>
