<svg width="68" height="63" viewBox="0 0 68 63" fill="none" xmlns="http://www.w3.org/2000/svg">
<rect x="24" width="29" height="29" rx="9" fill="#C776FB"/>
<path d="M43.44 9.68C43.68 9.968 43.848 10.2 43.944 10.376C44.04 10.552 44.088 10.72 44.088 10.88C44.088 11.072 43.96 11.296 43.704 11.552C43.464 11.808 43.224 11.936 42.984 11.936C42.664 11.936 42.408 11.888 42.216 11.792C42.024 11.696 41.864 11.544 41.736 11.336C41.48 10.952 41.168 10.624 40.8 10.352C40.432 10.064 39.856 9.92 39.072 9.92C38.4 9.92 37.632 10.072 36.768 10.376C35.92 10.68 35.312 11.056 34.944 11.504C34.624 11.904 34.344 12.512 34.104 13.328C33.88 14.144 33.768 14.936 33.768 15.704C33.768 16.632 33.968 17.488 34.368 18.272C34.784 19.04 35.376 19.656 36.144 20.12C36.928 20.584 37.864 20.816 38.952 20.816C39.544 20.816 40.152 20.704 40.776 20.48C41.416 20.24 41.968 19.856 42.432 19.328H42.408C42.696 19.024 43.056 18.872 43.488 18.872C43.744 18.872 43.984 18.984 44.208 19.208C44.448 19.432 44.568 19.656 44.568 19.88C44.568 20.12 44.528 20.336 44.448 20.528C44.384 20.704 44.256 20.904 44.064 21.128C43.408 21.864 42.632 22.368 41.736 22.64C40.84 22.912 39.768 23.048 38.52 23.048C37.416 23.048 36.296 22.784 35.16 22.256C34.04 21.728 33.176 21.088 32.568 20.336C32.248 19.872 31.936 19.208 31.632 18.344C31.344 17.464 31.2 16.752 31.2 16.208C31.2 14.816 31.408 13.496 31.824 12.248C32.256 10.984 32.896 9.976 33.744 9.224C34.304 8.712 35.112 8.328 36.168 8.072C37.224 7.816 38.192 7.688 39.072 7.688C40.144 7.688 40.984 7.84 41.592 8.144C42.216 8.432 42.832 8.944 43.44 9.68Z" fill="white"/>
<rect x="39" y="29" width="29" height="29" rx="9" fill="#FFA041"/>
<path d="M57.112 43.888C58.28 44.032 59.144 44.408 59.704 45.016C60.28 45.608 60.568 46.344 60.568 47.224C60.568 48.104 60.24 48.936 59.584 49.72C58.944 50.504 58.12 51.112 57.112 51.544C56.664 51.72 56.072 51.848 55.336 51.928C54.616 52.008 53.872 52.048 53.104 52.048C51.824 52.048 50.512 51.928 49.168 51.688C48.928 51.64 48.672 51.52 48.4 51.328C48.144 51.136 48.016 50.856 48.016 50.488C48 49.016 47.944 46.968 47.848 44.344L47.824 43.024C47.76 40.976 47.728 39.368 47.728 38.2C47.728 37.992 47.848 37.752 48.088 37.48C48.344 37.192 48.648 37.032 49 37C49.208 37 49.408 36.992 49.6 36.976C51.408 36.8 52.616 36.712 53.224 36.712C54.424 36.712 55.48 36.832 56.392 37.072C57.32 37.296 58.088 37.712 58.696 38.32C58.92 38.576 59.104 38.904 59.248 39.304C59.392 39.688 59.464 40.064 59.464 40.432C59.48 41.216 59.272 41.936 58.84 42.592C58.424 43.248 57.848 43.68 57.112 43.888ZM53.368 38.752C52.824 38.752 52.256 38.784 51.664 38.848C51.088 38.912 50.6 38.992 50.2 39.088L50.344 43.624L51.208 43.6C52.6 43.456 53.624 43.336 54.28 43.24C54.696 43.144 55.104 42.96 55.504 42.688C55.904 42.4 56.232 42.104 56.488 41.8C56.76 41.48 56.896 41.24 56.896 41.08C56.896 40.84 56.848 40.6 56.752 40.36C56.656 40.104 56.552 39.92 56.44 39.808C56.008 39.392 55.568 39.112 55.12 38.968C54.672 38.824 54.088 38.752 53.368 38.752ZM50.416 49.936C51.232 50.048 52.008 50.104 52.744 50.104C54.36 50.104 55.632 49.896 56.56 49.48C57.504 49.048 57.976 48.232 57.976 47.032C57.976 46.552 57.616 46.152 56.896 45.832C56.176 45.512 55.4 45.352 54.568 45.352C54.008 45.352 53.296 45.416 52.432 45.544C51.744 45.64 51.072 45.704 50.416 45.736C50.448 46.696 50.464 47.304 50.464 47.56C50.464 48.056 50.456 48.432 50.44 48.688L50.416 49.936Z" fill="white"/>
<rect x="0.999756" y="43.0364" width="29" height="29" rx="9" transform="rotate(-46.5 0.999756 43.0364)" fill="#5788FF"/>
<path d="M30.1453 43.9984C29.8048 43.962 29.469 43.8859 29.1377 43.7701C28.7949 43.6433 28.4001 43.4782 27.9534 43.2748C27.8733 43.243 27.6332 43.1474 27.2329 42.9881C26.8436 42.8173 26.4784 42.7023 26.1374 42.6433C25.5479 43.4736 25.033 44.1209 24.5924 44.5852C24.3501 44.8405 24.0745 45.1193 23.7655 45.4217C23.4559 45.7014 23.2296 45.9167 23.0864 46.0676C22.4893 46.6038 22.0255 47.046 21.6951 47.3942C21.7486 47.7097 21.8303 48.0188 21.9401 48.3215C22.0609 48.6126 22.2586 49.0318 22.5332 49.5792C22.9385 50.3608 23.1972 50.9482 23.3094 51.3414C23.3843 51.6111 23.2786 51.8968 22.9923 52.1985C22.75 52.4539 22.472 52.6422 22.1583 52.7636C21.844 52.8624 21.5882 52.8181 21.3909 52.6309C21.0379 52.1195 20.7114 51.5339 20.4111 50.8741C20.1103 50.1916 19.7296 49.2678 19.2691 48.1029L18.2238 45.7875C17.6124 44.4793 17.1071 43.3382 16.7081 42.364C16.3202 41.3782 15.8981 40.1726 15.4421 38.7472C15.3689 38.5454 15.363 38.3192 15.4243 38.0686C15.474 37.807 15.5925 37.5776 15.7798 37.3803C15.989 37.1598 16.1551 37.0196 16.278 36.9598C16.4004 36.8774 16.5239 36.8402 16.6486 36.8482C16.7617 36.8453 16.972 36.8794 17.2794 36.9505C18.269 37.1397 19.2209 37.4033 20.1352 37.7416C21.0604 38.0682 22.3068 38.5561 23.8744 39.2055L25.144 39.7155C26.288 40.1835 27.2545 40.5713 28.0434 40.8788C28.8318 41.1637 29.5958 41.3814 30.3354 41.5318C30.8133 41.6325 31.1104 41.7379 31.2264 41.848C31.505 42.1123 31.6371 42.4031 31.6227 42.7204C31.6078 43.015 31.4737 43.2958 31.2204 43.5628C30.901 43.8994 30.5426 44.0445 30.1453 43.9984ZM24.2307 41.7935C23.6599 41.6048 22.7218 41.2219 21.4165 40.6449C20.0306 40.0135 18.8593 39.5858 17.9028 39.3618C18.2506 40.111 18.6618 41.1188 19.1363 42.3853C19.4065 43.1931 19.8818 44.2728 20.5623 45.6244C21.36 44.9697 22.1664 44.213 22.9814 43.3541C23.5651 42.739 23.9816 42.2188 24.2307 41.7935Z" fill="white"/>
</svg>
