<?xml version="1.0" encoding="iso-8859-1"?>

<!DOCTYPE svg PUBLIC "-//W3C//DTD SVG 1.1//EN" "http://www.w3.org/Graphics/SVG/1.1/DTD/svg11.dtd">
<!-- Uploaded to: SVG Repo, www.svgrepo.com, Generator: SVG Repo Mixer Tools -->
<svg version="1.1" id="_x36_" xmlns="http://www.w3.org/2000/svg" xmlns:xlink="http://www.w3.org/1999/xlink" 
	 viewBox="0 0 512 512"  xml:space="preserve">
<g>
	<g>
		<g>
			<path style="fill:#252625;" d="M221.003,488.694v20.791c0,1.406-1.11,2.516-2.515,2.516H75.098c-1.406,0-2.516-1.11-2.516-2.516
				v-20.791c0-8.361,6.807-15.242,15.168-15.242h118.086C214.197,473.452,221.003,480.333,221.003,488.694z"/>
		</g>
		<g>
			<path style="fill:#787878;" d="M161.591,379.191v109.133c0,1.628-1.332,2.959-2.96,2.959h-23.676
				c-1.628,0-2.959-1.332-2.959-2.959V379.191c0-1.628,1.332-2.96,2.959-2.96h23.676
				C160.259,376.231,161.591,377.563,161.591,379.191z"/>
		</g>
		<g>
			<path style="fill:#252625;" d="M3.773,212.864v104.768c0,73.175,54.899,134.289,127.704,142.058c0.148,0,0.37,0.074,0.518,0.074
				c5.179,0.518,9.988,0.814,14.798,0.814c4.809,0,9.767-0.296,14.798-0.814c0.148,0,0.37-0.074,0.518-0.074
				c32.111-3.404,62.52-17.979,85.678-41.064c27.08-27.154,42.025-62.964,42.025-100.994V212.864H3.773z M279.603,317.632
				c0,35.293-13.836,68.587-39.066,93.743c-21.309,21.383-49.424,34.923-78.946,38.178c-0.148,0.074-0.37,0.074-0.518,0.074
				c-4.883,0.518-9.544,0.814-14.28,0.814c-4.661,0-9.249-0.296-14.28-0.814c-0.148,0-0.37-0.074-0.518-0.074
				c-67.33-7.473-118.012-64.074-118.012-131.922v-94.557h265.619V317.632z"/>
		</g>
		<g>
			<g>
				<path style="fill:#B87777;" d="M275.515,240.515c9.938,0,18.068-8.131,18.068-18.068l0,0c0-9.938-8.131-18.068-18.068-18.068
					h-11.544v36.137H275.515z"/>
			</g>
			<g>
				<path style="fill:#B87777;" d="M29.595,204.356v36.18H18.053c-1.406,0-2.738-0.148-4.069-0.518
					c-1.85-0.37-3.551-1.036-5.105-1.998c-1.332-0.814-2.516-1.701-3.551-2.812c-0.592-0.592-1.11-1.184-1.554-1.776
					C1.406,230.4,0,226.627,0,222.483c0-9.989,8.139-18.127,18.053-18.127H29.595z"/>
			</g>
		</g>
		<g>
			<path style="fill:#252625;" d="M268.652,207.02v87.972c0,33.517-13.762,63.926-35.81,86.049
				c-18.793,18.719-43.653,31.519-71.251,34.922c-4.809,0.592-9.766,0.888-14.798,0.888c-5.031,0-9.915-0.296-14.798-0.962
				c-60.153-7.325-107.061-58.895-107.061-120.897V207.02H268.652z"/>
		</g>
		<g style="opacity:0.5;">
			<rect x="25.12" y="235.781" style="fill:#161616;" width="243.345" height="28.757"/>
		</g>
		<g>
			<rect x="19.903" y="193.702" style="fill:#DCDBDB;" width="253.78" height="28.782"/>
		</g>
		<g>
			<rect x="19.903" y="222.483" style="fill:#787878;" width="253.78" height="28.708"/>
		</g>
		<g>
			<g>
				<path style="fill:#3B393A;" d="M268.652,121.859v77.836H24.934v-77.836c0-33.517,13.762-63.926,35.811-86.049
					c0.888-0.888,1.85-1.85,2.812-2.663c3.847-3.625,7.843-6.955,12.134-10.062C95.741,8.582,120.305,0,146.793,0
					c24.194,0,46.761,7.177,65.776,19.459c1.776,1.184,3.551,2.368,5.327,3.625c4.292,3.107,8.287,6.437,12.134,10.062
					c7.251,6.807,13.762,14.502,19.163,22.936C261.475,75.024,268.652,97.665,268.652,121.859z"/>
			</g>
			<g>
				<path style="fill:#787878;" d="M78.65,29.299c0,4.44-3.551,8.065-7.991,8.065c-3.107,0-5.771-1.702-7.103-4.217
					c3.847-3.625,7.843-6.955,12.134-10.062C77.54,24.564,78.65,26.784,78.65,29.299z"/>
			</g>
			<g>
				<circle style="fill:#787878;" cx="146.793" cy="29.334" r="8.037"/>
			</g>
			<g>
				<path style="fill:#787878;" d="M217.887,23.086c-1.815,1.472-2.982,3.718-2.982,6.244c0,4.442,3.591,8.046,8.033,8.046
					c3.071,0,5.736-1.726,7.094-4.264L217.887,23.086z"/>
			</g>
			<g>
				<circle style="fill:#787878;" cx="70.649" cy="96.477" r="8.038"/>
			</g>
			<g>
				<circle style="fill:#787878;" cx="146.793" cy="96.477" r="8.037"/>
			</g>
			<g>
				<circle style="fill:#787878;" cx="222.938" cy="96.477" r="8.037"/>
			</g>
			<g>
				<circle style="fill:#787878;" cx="70.649" cy="163.621" r="8.038"/>
			</g>
			<g>
				<circle style="fill:#787878;" cx="146.793" cy="163.621" r="8.037"/>
			</g>
			<g>
				<circle style="fill:#787878;" cx="222.938" cy="163.621" r="8.037"/>
			</g>
		</g>
	</g>
	<path style="opacity:0.2;fill:#FFFFFF;" d="M75.69,23.084c-4.291,3.107-8.287,6.437-12.134,10.062
		c-0.962,0.814-1.924,1.776-2.812,2.663c-22.048,22.122-35.811,52.532-35.811,86.049v71.843h-5.031v10.654h-1.85
		C8.139,204.356,0,212.495,0,222.483c0,4.143,1.406,7.917,3.773,10.95c0.444,0.592,0.962,1.184,1.554,1.776
		c1.035,1.11,2.22,1.998,3.551,2.812v79.612c0,70.807,54.16,129.628,123.117,137.027v18.793H87.75
		c-8.36,0-15.168,6.881-15.168,15.242v20.791c0,1.406,1.11,2.516,2.516,2.516h71.695V0C120.305,0,95.741,8.582,75.69,23.084z
		 M131.996,449.554c-67.33-7.473-118.012-64.074-118.012-131.922v-77.614c1.332,0.37,2.663,0.518,4.069,0.518h1.85v10.654h5.031
		v43.801c0,62.002,46.909,113.572,107.061,120.897V449.554z"/>
</g>
</svg>