<svg width="64" height="63" viewBox="0 0 64 63" fill="none" xmlns="http://www.w3.org/2000/svg">
<rect x="17" width="30" height="30" rx="6" fill="#C776FB"/>
<path d="M33.825 10.85C33.6583 14.1167 33.575 16.7167 33.575 18.65C33.575 19.65 33.6 20.6 33.65 21.5C33.7833 21.6 34.0417 21.65 34.425 21.65L35 21.625C35.2333 21.5917 35.45 21.575 35.65 21.575C36.0833 21.575 36.4167 21.65 36.65 21.8C36.9 21.95 37.025 22.2417 37.025 22.675C37.025 23.0917 36.9 23.4167 36.65 23.65C36.4167 23.8833 35.925 24 35.175 24C34.5417 24 33.775 23.95 32.875 23.85C32.6583 23.8333 32.45 23.8167 32.25 23.8C32.05 23.7833 31.8667 23.775 31.7 23.775C30.7833 23.7917 30.1 23.825 29.65 23.875C29.2 23.925 28.6917 23.95 28.125 23.95C27.6083 23.95 27.35 23.5583 27.35 22.775C27.35 22.025 27.8333 21.65 28.8 21.65C28.95 21.65 29.1917 21.6667 29.525 21.7C29.8083 21.75 30.1083 21.775 30.425 21.775C30.6083 21.775 30.7583 21.7667 30.875 21.75C30.8917 20.6333 30.95 19.0083 31.05 16.875C31.15 14.375 31.2 12.525 31.2 11.325C31.1167 11.3417 30.825 11.4583 30.325 11.675C29.5583 12.0583 28.9917 12.25 28.625 12.25C28.425 12.25 28.2417 12.15 28.075 11.95C27.9083 11.7333 27.825 11.4833 27.825 11.2C27.825 10.9167 28 10.6417 28.35 10.375C28.7 10.1083 29.2667 9.75833 30.05 9.325C30.4833 9.10833 30.9 8.86667 31.3 8.6C31.4 8.53333 31.5417 8.46667 31.725 8.4C31.925 8.33333 32.075 8.3 32.175 8.3C32.6083 8.3 33 8.39167 33.35 8.575C33.7167 8.74167 33.9 8.96667 33.9 9.25L33.825 10.85Z" fill="white"/>
<rect y="33" width="30" height="30" rx="6" fill="#4DB198"/>
<path d="M12.775 54.4C13.3417 54.4333 13.7167 54.45 13.9 54.45C14.4667 54.45 14.9667 54.4417 15.4 54.425C15.85 54.4083 16.2333 54.3917 16.55 54.375C17.3667 54.325 18.1 54.3 18.75 54.3C19.3833 54.3 19.85 54.4667 20.15 54.8C20.45 55.1333 20.6 55.575 20.6 56.125C20.6 56.3917 20.425 56.6083 20.075 56.775C19.725 56.925 19.3667 57 19 57C18.6833 57 18.025 56.9667 17.025 56.9C15.825 56.8 14.8833 56.75 14.2 56.75C13.8333 56.75 13.4 56.775 12.9 56.825C12.7 56.8417 12.4583 56.8583 12.175 56.875C11.8917 56.8917 11.575 56.9 11.225 56.9C10.5583 56.9 10.05 56.8083 9.7 56.625C9.35 56.4417 9.175 56.1083 9.175 55.625C9.175 55.2083 9.34167 54.7833 9.675 54.35C10.0083 53.9167 10.475 53.4 11.075 52.8L11.675 52.2C11.9417 51.9167 12.4333 51.4333 13.15 50.75C14.3333 49.6833 15.25 48.7417 15.9 47.925C16.5667 47.1083 16.9 46.3 16.9 45.5C16.9 44.9833 16.65 44.5667 16.15 44.25C15.6667 43.9167 15.1083 43.75 14.475 43.75C13.5083 43.75 12.8083 43.9667 12.375 44.4C11.9583 44.8167 11.75 45.425 11.75 46.225C11.75 46.425 11.6333 46.6083 11.4 46.775C11.1833 46.925 10.9083 47 10.575 47C10.1083 47 9.78333 46.8333 9.6 46.5C9.41667 46.1667 9.325 45.7583 9.325 45.275C9.325 44.5083 9.55833 43.8333 10.025 43.25C10.4917 42.65 11.125 42.1833 11.925 41.85C12.7417 41.5167 13.6417 41.35 14.625 41.35C15.325 41.35 16.05 41.525 16.8 41.875C17.5667 42.2083 18.2 42.6667 18.7 43.25C19.2167 43.8167 19.475 44.4417 19.475 45.125C19.475 46.1583 19.2167 47.1417 18.7 48.075C18.1833 49.0083 17.575 49.8417 16.875 50.575C16.1917 51.2917 15.3 52.1417 14.2 53.125C13.6667 53.575 13.1917 54 12.775 54.4Z" fill="white"/>
<rect x="34" y="33" width="30" height="30" rx="6" fill="#FFA041"/>
<path d="M49.875 47C51.2417 47.3 52.375 47.8917 53.275 48.775C54.175 49.6583 54.625 50.6833 54.625 51.85C54.625 52.55 54.4583 53.2333 54.125 53.9C53.5917 54.9667 52.7917 55.7667 51.725 56.3C50.675 56.8333 49.4583 57.1 48.075 57.1C47.2083 57.1 46.4333 56.9417 45.75 56.625C45.0667 56.2917 44.3917 55.85 43.725 55.3C43.475 55.0667 43.25 54.7333 43.05 54.3C42.8667 53.8667 42.775 53.5083 42.775 53.225C42.775 52.8583 42.875 52.5667 43.075 52.35C43.2917 52.1167 43.575 52 43.925 52C44.275 52 44.55 52.0833 44.75 52.25C44.95 52.4167 45.1917 52.6833 45.475 53.05C45.7417 53.4 45.9833 53.6833 46.2 53.9C46.4167 54.1 46.7083 54.275 47.075 54.425C47.4417 54.575 47.9 54.65 48.45 54.65C49.5667 54.65 50.4417 54.375 51.075 53.825C51.7083 53.275 52.025 52.5 52.025 51.5C52.025 51.1167 51.8167 50.7333 51.4 50.35C50.9833 49.95 50.5917 49.6667 50.225 49.5C50.0083 49.3833 49.6083 49.2667 49.025 49.15C48.2417 48.95 47.65 48.7583 47.25 48.575C46.8667 48.375 46.675 48.0667 46.675 47.65C46.675 47.3667 46.8 47.0917 47.05 46.825C47.3 46.5417 47.675 46.1917 48.175 45.775C48.675 45.3583 49.05 45.0167 49.3 44.75C49.55 44.4667 49.675 44.1833 49.675 43.9C49.3583 43.8167 48.8833 43.775 48.25 43.775C47.9667 43.775 47.5417 43.7917 46.975 43.825C46.475 43.8583 46.0917 43.875 45.825 43.875C45.225 43.875 44.7083 43.775 44.275 43.575C43.8583 43.375 43.65 43.1167 43.65 42.8C43.65 42.45 43.6833 42.175 43.75 41.975C43.8167 41.7583 43.9417 41.625 44.125 41.575C44.2417 41.525 44.45 41.5 44.75 41.5C45.5667 41.5 46.275 41.525 46.875 41.575C47.5417 41.6083 48.05 41.625 48.4 41.625L50.475 41.6C52.175 41.6 53.025 42.0083 53.025 42.825C53.025 43.4417 52.7083 44.1417 52.075 44.925C51.4583 45.6917 50.725 46.3833 49.875 47Z" fill="white"/>
</svg>
